<svg><metadata>Created by FontForge 20110222 at Wed Apr 9 11:29:35 2014 By Orthosie Webhosting Part of the digitally encoded machine readable outline data for producing the Typefaces provided is copyrighted (c) 2003 - 2006 Linotype GmbH, www.linotype.com. All rights reserved. This software is the property of Linotype GmbH, and may not be reproduced, modified, disclosed or transferred without the express written approval of Linotype GmbH. Copyright (c) 1988, 1990, 1993 Adobe Systems Incorporated. All Rights Reserved. Helvetica is a trademark of Heidelberger Druckmaschinen AG, exclusively licensed through Linotype GmbH, and may be registered in certain jurisdictions. This typeface is original artwork of Linotype Design Studio. The design may be protected in certain jurisdictions.</metadata><defs><font id="HelvNeueLightforIBMRegular" horiz-adv-x="197"><font-face x-height="516" ascent="714" bbox="-160 -214 1056 967" cap-height="714" descent="-286" font-family="HelvNeueLightforIBMRegular" font-stretch="normal" font-weight="300" panose-1="2 11 4 3 2 2 2 2 2 4" underline-position="-50" underline-thickness="50" unicode-range="U+000D-FB02" units-per-em="1000"/><glyph d="M76 0v714h68v-714h-68zM586 228v486h68v-515q0 -111 -47.5 -162.5t-160.5 -51.5q-199 0 -199 244h68q0 -3 0.5 -19.5t1 -23.5t2.5 -24t5 -25.5t8 -23t11.5 -22.5t17 -19t23.5 -16t30 -9t38 -4q78 0 106 41.5t28 143.5z" glyph-name="IJ" horiz-adv-x="725" unicode="IJ"/><glyph d="M64 613v101h63v-101h-63zM64 0v516h63v-516h-63zM252 613v101h63v-101h-63zM252 -63v579h63v-564q0 -143 -110 -143q-7 0 -22 1t-22 1v52q23 -2 34 -1q34 0 45.5 19t11.5 56z" glyph-name="ij" horiz-adv-x="379" unicode="ij"/><glyph d="M80 0v516h63v-89h2q18 46 64 75t101 29q104 0 146.5 -50.5t42.5 -148.5v-332h-63v322q0 156 -131 156q-74 0 -117 -49.5t-45 -127.5v-301h-63zM25 805h86v-80q0 -69 -86 -73v28q36 7 39 34h-39v91z" glyph-name="napostrophe" horiz-adv-x="561" unicode="&quot;n"/><glyph d="M326 613v101h63v-101h-63zM100 0v463h-88v53h88v47q0 74 27 112.5t98 38.5q26 0 53 -4v-54q-28 5 -46 5q-20 0 -33.5 -5.5t-20.5 -13t-10.5 -23t-4 -26t-0.5 -32.5v-45h102v-53h-102v-463h-63zM326 0v516h63v-516h-63z" glyph-name="fi" horiz-adv-x="456" unicode="fi"/><glyph d="M326 0v714h63v-714h-63zM100 0v463h-88v53h88v47q0 74 27 112.5t98 38.5q26 0 53 -4v-54q-28 5 -46 5q-20 0 -33.5 -5.5t-20.5 -13t-10.5 -23t-4 -26t-0.5 -32.5v-45h102v-53h-102v-463h-63z" glyph-name="fl" horiz-adv-x="456" unicode="fl"/><glyph d="M284 117h-56v67h56v-67zM277 234h-46l-2 17q0 56 13 81q15 28 46 59q31 29 40.5 46t9.5 37q0 36 -22.5 60.5t-53.5 24.5q-71 0 -82 -95l-50 8q7 69 43 103t92 34q54 0 89 -36t35 -95q0 -34 -13 -60t-50 -60q-37 -33 -43 -52q-6 -20 -6 -72zM56 50h412v617h-412v-617z M6 718h512v-718h-512v718z" glyph-name=".notdef" horiz-adv-x="524"/><glyph glyph-name=".null" horiz-adv-x="500"/><glyph glyph-name=".null" horiz-adv-x="500"/><glyph glyph-name="nonmarkingreturn" horiz-adv-x="333"/><glyph glyph-name="CR" horiz-adv-x="0"/><glyph glyph-name="space" horiz-adv-x="238"/><glyph d="M169 0h-84v106h84v-106zM108 178l-15 323v213h68v-213l-15 -323h-38z" glyph-name="exclam" horiz-adv-x="253" unicode="!"/><glyph d="M226 471v243h63v-243h-63zM93 471v243h63v-243h-63z" glyph-name="quotedbl" horiz-adv-x="382" unicode="&quot;"/><glyph d="M370 424h-141l-22 -156h141zM503 268v-45h-111l-31 -223h-50l31 223h-141l-31 -223h-50l31 223h-110v45h116l22 156h-110v45h116l31 222h50l-31 -222h141l31 222h50l-31 -222h105v-45h-111l-22 -156h105z" glyph-name="numbersign" horiz-adv-x="568" unicode="#"/><glyph d="M35 228h63q1 -171 165 -190v296q-49 10 -81.5 22t-64.5 34t-48 58t-16 86q0 88 60.5 141.5t149.5 53.5v78h39v-78q90 0 152 -60.5t60 -156.5h-63q-1 75 -42 119.5t-107 44.5v-288q51 -11 86 -23t71.5 -34.5t55 -59t18.5 -86.5q0 -94 -68.5 -147t-162.5 -53v-85h-39v86 q-116 11 -170 69t-58 173zM263 397v279q-65 0 -106 -37t-41 -112q0 -33 11 -56t36 -37.5t44 -21t56 -15.5zM302 326v-288q70 0 119 36.5t49 109.5q0 34 -14 59t-42 41t-52 24.5t-60 17.5z" glyph-name="dollar" horiz-adv-x="568" unicode="$"/><glyph d="M234 706q81 0 120 -51.5t39 -137.5t-39 -137.5t-120 -51.5t-120 51.5t-39 137.5t39 137.5t120 51.5zM673 318q-40 0 -65 -24t-33 -54t-8 -67q0 -36 8 -66t33 -53.5t65 -23.5q56 0 81 43t25 100q0 58 -25 101.5t-81 43.5zM673 363q81 0 120 -51.5t39 -137.5t-39 -137.5 t-120 -51.5t-120 51.5t-39 137.5t39 137.5t120 51.5zM196 -34l453 759h47l-452 -759h-48zM234 661q-40 0 -65 -24t-33 -54t-8 -67q0 -36 8 -66t33 -53.5t65 -23.5q56 0 81 43t25 100q0 58 -25 101.5t-81 43.5z" glyph-name="percent" horiz-adv-x="901" unicode="%"/><glyph d="M290 661q-41 0 -68 -24.5t-27 -67.5q0 -23 15.5 -53t28 -46.5t36.5 -44.5q32 21 52 37t39 45t19 62q0 43 -27 67.5t-68 24.5zM547 0l-76 93q-86 -108 -210 -108q-95 0 -155.5 53t-60.5 147q0 118 175 212q-3 4 -16.5 21t-18.5 23.5t-16 22t-15.5 25.5t-10.5 24t-8.5 28 t-2.5 28q0 64 45.5 104.5t112.5 40.5t112.5 -40.5t45.5 -104.5q0 -60 -36.5 -101.5t-103.5 -83.5l156 -188q21 43 21 120h63q0 -93 -42 -171l120 -145h-79zM432 140l-178 216q-146 -78 -146 -177q0 -61 46.5 -101t108.5 -40q97 0 169 102z" glyph-name="ampersand" horiz-adv-x="623" unicode="&amp;"/><glyph d="M114 471v243h63v-243h-63z" glyph-name="quotesingle" horiz-adv-x="290" unicode="'"/><glyph d="M248 -191h-50q-71 118 -106 225.5t-35 231.5q0 245 141 463h50q-128 -206 -128 -486q0 -107 35 -224.5t93 -209.5z" glyph-name="parenleft" horiz-adv-x="253" unicode="("/><glyph d="M5 729h50q71 -118 106 -225.5t35 -231.5q0 -245 -141 -463h-50q128 206 128 486q0 106 -35 221t-93 213z" glyph-name="parenright" horiz-adv-x="253" unicode=")"/><glyph d="M148 556l-115 39l14 37l115 -41v123h39v-123l115 41l15 -37l-118 -39l72 -98l-32 -23l-73 100l-73 -100l-32 23z" glyph-name="asterisk" horiz-adv-x="364" unicode="*"/><glyph d="M280 278v225h53v-225h225v-53h-225v-225h-53v225h-225v53h225z" glyph-name="plus" horiz-adv-x="612" unicode="+"/><glyph d="M60 106h84v-107q0 -47 -23 -86t-65 -50v43q22 8 35 38t11 56h-42v106z" glyph-name="comma" horiz-adv-x="204" unicode=","/><glyph d="M316 246h-250v58h250v-58z" glyph-name="hyphen" horiz-adv-x="382" unicode="-"/><glyph d="M144 0h-84v106h84v-106z" glyph-name="period" horiz-adv-x="204" unicode="."/><glyph d="M47 -15h-54l308 744h51z" glyph-name="slash" horiz-adv-x="345" unicode="/"/><glyph d="M297 706q59 0 103.5 -22.5t70.5 -57t42.5 -84t22 -96t5.5 -100.5t-5.5 -101t-22 -96.5t-42.5 -84t-70.5 -57t-103.5 -22.5t-103.5 22.5t-70.5 57t-42.5 84t-22 96t-5.5 100.5t5.5 101t22 96.5t42.5 84t70.5 57t103.5 22.5zM297 653q-181 0 -181 -307q0 -308 181 -308 t181 308q0 307 -181 307z" glyph-name="zero" horiz-adv-x="594" unicode="0"/><glyph d="M56 520v45q41 1 62 3t48.5 9t41.5 21t26.5 39t18.5 63h51v-700h-63v520h-185z" glyph-name="one" horiz-adv-x="400" unicode="1"/><glyph d="M502 58v-58h-461q1 59 24.5 107t63 83t80 62.5t90 61.5t79.5 64q58 58 58 132q0 66 -45.5 104.5t-111.5 38.5q-81 0 -120.5 -55.5t-37.5 -139.5h-63q-2 112 55.5 180t168.5 68q95 0 156 -51.5t61 -145.5q0 -80 -47 -138t-129 -111q-7 -5 -44.5 -28.5t-56 -37t-46.5 -37 t-43 -48.5t-20 -51h389z" glyph-name="two" horiz-adv-x="543" unicode="2"/><glyph d="M52 223h63q-4 -84 43.5 -134.5t131.5 -50.5q73 0 126 41.5t53 113.5t-47 110t-121 38h-53v53h53q55 0 98.5 32.5t43.5 94.5q0 66 -43 99t-110 33q-77 0 -119 -49t-40 -128h-63q0 101 60.5 165.5t160.5 64.5q90 0 153.5 -45.5t63.5 -132.5q0 -58 -31 -99.5t-87 -55.5v-2 q68 -11 106 -57t38 -116q0 -99 -69.5 -156t-171.5 -57q-111 0 -179 64t-60 174z" glyph-name="three" horiz-adv-x="578" unicode="3"/><glyph d="M93 227h266v381h-2zM36 174v61l324 465h57v-473h105v-53h-105v-174h-58v174h-323z" glyph-name="four" horiz-adv-x="558" unicode="4"/><glyph d="M41 200h63q2 -72 50.5 -117t121.5 -45q79 0 127 56t48 135q0 78 -50.5 130t-128.5 52q-101 0 -156 -83h-54l68 363h350v-58h-306l-45 -232l2 -2q26 30 66 47.5t82 17.5q107 0 171 -67.5t64 -174.5q0 -101 -71 -169t-172 -68q-99 0 -163.5 58.5t-66.5 156.5z" glyph-name="five" horiz-adv-x="560" unicode="5"/><glyph d="M524 523h-63q-8 59 -47 94.5t-99 35.5q-58 0 -98.5 -30t-60 -80.5t-27 -99t-7.5 -103.5h2q25 52 75.5 84t110.5 32q104 0 167.5 -65.5t63.5 -168.5t-66.5 -170t-170.5 -67q-129 0 -187 85t-58 287q0 33 3.5 69t19 89t40.5 93t73.5 69t113.5 29q193 0 215 -183zM309 403 q-80 0 -127 -52.5t-47 -132.5t43.5 -130t131.5 -50q73 0 120.5 52.5t47.5 127.5q0 79 -45.5 132t-123.5 53z" glyph-name="six" horiz-adv-x="587" unicode="6"/><glyph d="M11 633v58h450v-58q-32 -33 -62 -69.5t-70.5 -99t-70 -128t-52.5 -154.5t-28 -182h-68q12 179 77.5 323.5t210.5 309.5h-387z" glyph-name="seven" horiz-adv-x="472" unicode="7"/><glyph d="M292 401q62 -2 105.5 32t43.5 98q0 58 -41.5 90t-107.5 32q-62 0 -106 -32.5t-44 -89.5q0 -66 44.5 -99t105.5 -31zM504 531q0 -57 -30 -97.5t-84 -56.5v-2q68 -14 105.5 -61t37.5 -118q0 -101 -68.5 -156t-172.5 -55t-172.5 55t-68.5 156q2 70 40 118.5t102 60.5v2 q-114 36 -114 154q0 84 63 129.5t149 45.5t149.5 -45.5t63.5 -129.5zM292 38q79 0 128.5 40t49.5 118q0 72 -52 113t-126 39q-76 2 -127 -38t-51 -114q0 -76 50 -117t128 -41z" glyph-name="eight" horiz-adv-x="584" unicode="8"/><glyph d="M63 168h63q8 -59 47 -94.5t99 -35.5q58 0 98.5 30t60 80.5t27 99t7.5 103.5h-2q-25 -52 -75.5 -84t-110.5 -32q-104 0 -167.5 65.5t-63.5 168.5t66.5 170t170.5 67q129 0 187 -85t58 -287q0 -33 -3.5 -69t-19 -89t-40.5 -93t-73.5 -69t-113.5 -29q-193 0 -215 183z M278 288q80 0 127 52.5t47 132.5t-43.5 130t-131.5 50q-73 0 -120.5 -52.5t-47.5 -127.5q0 -79 45.5 -132t123.5 -53z" glyph-name="nine" horiz-adv-x="587" unicode="9"/><glyph d="M187 0h-84v106h84v-106zM187 394h-84v106h84v-106z" glyph-name="colon" horiz-adv-x="290" unicode=":"/><glyph d="M187 394h-84v106h84v-106zM103 106h84v-107q0 -47 -23 -86t-65 -50v43q22 8 35 38t11 56h-42v106z" glyph-name="semicolon" horiz-adv-x="290" unicode=";"/><glyph d="M560 47v-55l-508 234v54l508 234v-55l-446 -206z" glyph-name="less" horiz-adv-x="612" unicode="&lt;"/><glyph d="M558 181v-53h-503v53h503zM558 378v-53h-503v53h503z" glyph-name="equal" horiz-adv-x="612" unicode="="/><glyph d="M52 47l446 206l-446 206v55l508 -234v-54l-508 -234v55z" glyph-name="greater" horiz-adv-x="612" unicode="&gt;"/><glyph d="M237 0v106h84v-106h-84zM123 494h-63q0 107 60 171t167 64q86 0 144.5 -50.5t58.5 -134.5q0 -52 -22 -90.5t-65 -79.5q-10 -10 -31 -30.5t-24.5 -24t-15 -18.5t-12 -21t-5 -23.5t-4.5 -33t-1 -44.5h-63q-2 85 21 127t94 106q65 61 65 129q0 59 -42 97t-101 38 q-79 0 -121 -51t-40 -131z" glyph-name="question" horiz-adv-x="549" unicode="?"/><glyph d="M620 544l-96 -288q-25 -83 13 -83q65 0 117 80.5t52 167.5q0 120 -82 191.5t-202 71.5q-138 0 -227 -95.5t-89 -235.5q0 -136 91 -229.5t227 -93.5q74 0 144.5 36t113.5 97h51q-45 -81 -130 -129.5t-179 -48.5q-161 0 -266 107.5t-105 267.5q0 156 106.5 262.5 t260.5 106.5q146 0 242.5 -87t96.5 -224q0 -117 -72.5 -203.5t-159.5 -86.5q-27 0 -45.5 17.5t-21.5 49.5h-2q-64 -66 -127 -66q-60 0 -96 42t-36 103q0 70 29 135.5t84.5 109.5t123.5 44q74 0 106 -84l25 65h53zM432 510q-71 0 -120.5 -76.5t-49.5 -154.5q0 -44 23 -70.5 t60 -26.5q64 0 115 81t51 154q0 35 -25 64t-54 29z" glyph-name="at" horiz-adv-x="812" unicode="@"/><glyph d="M315 646l-143 -366h281zM-8 0l288 714h76l280 -714h-73l-87 222h-325l-86 -222h-73z" glyph-name="A" horiz-adv-x="628" unicode="A"/><glyph d="M139 656v-255h234q78 0 119.5 34t41.5 87q0 134 -161 134h-234zM71 0v714h302q65 0 113.5 -15t82 -56t33.5 -104q0 -57 -34.5 -102.5t-89.5 -57.5v-2q69 -9 110 -56.5t41 -117.5q0 -25 -4 -47.5t-19.5 -52.5t-41.5 -51.5t-75.5 -36.5t-115.5 -15h-302zM139 343v-285h234 q188 0 188 147q0 68 -48.5 103t-139.5 35h-234z" glyph-name="B" horiz-adv-x="665" unicode="B"/><glyph d="M661 498h-68q-18 81 -78.5 127t-140.5 46q-68 0 -121 -27t-84.5 -72t-47.5 -99.5t-16 -115.5t16 -115.5t47.5 -99.5t84.5 -72t121 -27q96 0 157.5 65t71.5 164h68q-14 -133 -93 -210t-204 -77q-82 0 -147.5 30.5t-106 82.5t-62 118t-21.5 141t21.5 141t62 118t106 82.5 t147.5 30.5q108 0 190.5 -62t96.5 -169z" glyph-name="C" horiz-adv-x="702" unicode="C"/><glyph d="M71 0v714h247q328 -8 328 -357t-328 -357h-247zM139 656v-598h145q155 0 224.5 70t69.5 229t-69.5 229t-224.5 70h-145z" glyph-name="D" horiz-adv-x="683" unicode="D"/><glyph d="M71 0v714h493v-58h-425v-258h398v-58h-398v-282h430v-58h-498z" glyph-name="E" horiz-adv-x="610" unicode="E"/><glyph d="M71 0v714h453v-58h-385v-258h342v-58h-342v-340h-68z" glyph-name="F" horiz-adv-x="545" unicode="F"/><glyph d="M681 363v-363h-49l-9 130h-2q-34 -73 -99.5 -109t-147.5 -36t-147.5 30.5t-106 82.5t-62 118t-21.5 141t21.5 141t62 118t106 82.5t147.5 30.5q116 0 197 -61.5t101 -175.5h-68q-7 67 -71 123t-159 56q-68 0 -121 -27t-84.5 -72t-47.5 -99.5t-16 -115.5t16 -115.5 t47.5 -99.5t84.5 -72t121 -27q116 0 182.5 73t64.5 189h-243v58h303z" glyph-name="G" horiz-adv-x="739" unicode="G"/><glyph d="M71 0v714h68v-310h424v310h68v-714h-68v346h-424v-346h-68z" glyph-name="H" horiz-adv-x="702" unicode="H"/><glyph d="M76 0v714h68v-714h-68z" glyph-name="I" horiz-adv-x="220" unicode="I"/><glyph d="M359 228v486h68v-515q0 -111 -47.5 -162.5t-160.5 -51.5q-199 0 -199 244h68q0 -3 0.5 -19.5t1 -23.5t2.5 -24t5 -25.5t8 -23t11.5 -22.5t17 -19t23.5 -16t30 -9t38 -4q78 0 106 41.5t28 143.5z" glyph-name="J" horiz-adv-x="498" unicode="J"/><glyph d="M71 0v714h68v-384l415 384h92l-319 -295l334 -419h-88l-297 372l-137 -127v-245h-68z" glyph-name="K" horiz-adv-x="657" unicode="K"/><glyph d="M71 0v714h68v-656h400v-58h-468z" glyph-name="L" horiz-adv-x="565" unicode="L"/><glyph d="M69 0v714h100l247 -626l246 626h100v-714h-68v617h-2l-244 -617h-64l-245 617h-2v-617h-68z" glyph-name="M" horiz-adv-x="831" unicode="M"/><glyph d="M70 0v714h76l416 -604h2v604h68v-714h-76l-416 604h-2v-604h-68z" glyph-name="N" horiz-adv-x="702" unicode="N"/><glyph d="M101 357q0 -61 16 -115.5t47.5 -99.5t84.5 -72t121 -27t121 27t84 72t47 99.5t16 115.5t-16 115.5t-47 99.5t-84 72t-121 27t-121 -27t-84.5 -72t-47.5 -99.5t-16 -115.5zM33 357q0 75 21.5 141t62 118t106 82.5t147.5 30.5q108 0 185.5 -53t114 -135.5t36.5 -183.5 t-36.5 -183.5t-114 -135.5t-185.5 -53q-82 0 -147.5 30.5t-106 82.5t-62 118t-21.5 141z" glyph-name="O" horiz-adv-x="739" unicode="O"/><glyph d="M139 656v-292h234q74 0 116.5 37t42.5 109t-42.5 109t-116.5 37h-234zM71 0v714h317q97 0 154.5 -54t57.5 -150t-57.5 -150t-154.5 -54h-249v-306h-68z" glyph-name="P" horiz-adv-x="628" unicode="P"/><glyph d="M700 -4l-34 -42l-111 84q-74 -53 -185 -53q-82 0 -147.5 30.5t-106 82.5t-62 118t-21.5 141t21.5 141t62 118t106 82.5t147.5 30.5q108 0 185.5 -53t114 -135.5t36.5 -183.5q0 -179 -108 -283zM443 192l104 -79q91 85 91 244q0 61 -16 115.5t-47 99.5t-84 72t-121 27 t-121 -27t-84.5 -72t-47.5 -99.5t-16 -115.5t16 -115.5t47.5 -99.5t84.5 -72t121 -27q76 0 132 35l-94 71z" glyph-name="Q" horiz-adv-x="739" unicode="Q"/><glyph d="M139 656v-281h254q65 0 109.5 38t44.5 101q0 67 -39 104.5t-115 37.5h-254zM71 0v714h327q94 0 155.5 -47t61.5 -139q0 -70 -36 -119t-103 -63v-2q66 -9 93.5 -49.5t31.5 -111.5q0 -3 1.5 -33t3 -44t4.5 -39t9 -41t15 -26h-75q-6 9 -9.5 25t-5 28.5t-2.5 32t-2 25.5 q-2 38 -4.5 61.5t-11 55t-23 49t-41 29.5t-63.5 11h-258v-317h-68z" glyph-name="R" horiz-adv-x="665" unicode="R"/><glyph d="M35 235h68q-4 -192 233 -192q41 0 82.5 13.5t74 48.5t32.5 83q0 94 -147 129l-159 39q-74 19 -117.5 57t-43.5 115q0 30 11 61.5t36 64.5t76.5 54t122.5 21q113 0 188.5 -58t75.5 -164h-68q-4 78 -59.5 121t-135.5 43q-78 0 -128.5 -34t-50.5 -108q0 -85 108 -109 l174 -43q87 -23 136 -65.5t49 -122.5q0 -20 -3.5 -40.5t-20 -52t-43.5 -54.5t-80.5 -40t-125.5 -17q-134 0 -212.5 62.5t-72.5 187.5z" glyph-name="S" horiz-adv-x="628" unicode="S"/><glyph d="M26 656v58h566v-58h-249v-656h-68v656h-249z" glyph-name="T" horiz-adv-x="618" unicode="T"/><glyph d="M64 257v457h68v-442q0 -120 53 -174.5t156 -54.5t156.5 54.5t53.5 174.5v442h68v-457q0 -120 -68.5 -196t-209.5 -76q-140 0 -208.5 76.5t-68.5 195.5z" glyph-name="U" horiz-adv-x="683" unicode="U"/><glyph d="M257 0l-265 714h73l232 -639h2l230 639h72l-265 -714h-79z" glyph-name="V" horiz-adv-x="591" unicode="V"/><glyph d="M197 0l-198 714h73l162 -625h2l174 625h85l175 -625h2l163 625h68l-197 -714h-72l-181 639h-2l-180 -639h-74z" glyph-name="W" horiz-adv-x="905" unicode="W"/><glyph d="M244 368l-242 346h80l202 -299l209 299h76l-244 -348l258 -366h-82l-217 315l-220 -315h-77z" glyph-name="X" horiz-adv-x="572" unicode="X"/><glyph d="M270 0v294l-281 420h81l235 -362l234 362h81l-282 -420v-294h-68z" glyph-name="Y" horiz-adv-x="609" unicode="Y"/><glyph d="M53 656v58h514v-60l-470 -596h480v-58h-556v60l470 596h-438z" glyph-name="Z" horiz-adv-x="598" unicode="Z"/><glyph d="M243 -191h-161v920h161v-53h-98v-814h98v-53z" glyph-name="bracketleft" horiz-adv-x="253" unicode="["/><glyph d="M352 -15h-54l-305 744h51z" glyph-name="backslash" horiz-adv-x="345" unicode="\"/><glyph d="M10 729h161v-920h-161v53h98v814h-98v53z" glyph-name="bracketright" horiz-adv-x="253" unicode="]"/><glyph d="M108 238h-58l230 453h52l230 -453h-57l-200 390z" glyph-name="asciicircum" horiz-adv-x="612" unicode="^"/><glyph d="M506 -125h-500v50h500v-50z" glyph-name="underscore" horiz-adv-x="512" unicode="_"/><glyph d="M107 588l-132 141h78l105 -141h-51z" glyph-name="grave" unicode="`"/><glyph d="M120 358h-63q5 88 60.5 130.5t148.5 42.5q190 0 190 -166v-274q0 -38 37 -38q11 0 20 4v-53q-20 -4 -41 -4q-44 0 -59 22.5t-15 67.5h-2q-37 -55 -77.5 -80t-110.5 -25q-76 0 -124.5 38t-48.5 113q0 28 8 50.5t18.5 38t33 28t38.5 19t48.5 12.5t49.5 8.5t55 6.5 q17 2 26 3q44 4 62.5 17.5t18.5 52.5q0 59 -36 82.5t-99 23.5q-62 0 -99 -29.5t-39 -90.5zM393 200v82h-2q-8 -15 -53 -23q-17 -3 -54 -8.5t-57 -9t-48.5 -12t-43 -18.5t-26 -28.5t-11.5 -42.5q0 -46 34 -74t81 -28q76 0 128 44.5t52 117.5z" glyph-name="a" horiz-adv-x="525" unicode="a"/><glyph d="M63 0v714h63v-296h2q19 53 69 83t110 30q112 0 172 -78t60 -195t-60 -195t-172 -78q-63 0 -112.5 30t-71.5 83h-2v-98h-58zM476 258q0 57 -16.5 105t-56 81.5t-96.5 33.5q-92 0 -136.5 -64.5t-44.5 -155.5t44.5 -155.5t136.5 -64.5q57 0 96.5 33.5t56 81.5t16.5 105z" glyph-name="b" horiz-adv-x="580" unicode="b"/><glyph d="M490 354h-63q-27 124 -146 124q-85 0 -133 -65.5t-48 -154.5t48 -154.5t133 -65.5q58 0 101 42t49 105h63q-13 -94 -69.5 -147t-143.5 -53q-114 0 -179 78.5t-65 194.5t65 194.5t179 78.5q86 0 142 -45t67 -132z" glyph-name="c" horiz-adv-x="532" unicode="c"/><glyph d="M517 714v-714h-58v98h-2q-20 -50 -73 -81.5t-111 -31.5q-112 0 -172 78t-60 195t60 195t172 78q60 0 110 -30t69 -83h2v296h63zM104 258q0 -57 16.5 -105t56 -81.5t96.5 -33.5q92 0 136.5 64.5t44.5 155.5t-44.5 155.5t-136.5 64.5q-57 0 -96.5 -33.5t-56 -81.5 t-16.5 -105z" glyph-name="d" horiz-adv-x="580" unicode="d"/><glyph d="M100 294h334q-2 75 -47 129.5t-117 54.5q-73 0 -117 -53.5t-53 -130.5zM497 241h-397q0 -79 43.5 -141t126.5 -62q129 0 162 132h63q-43 -185 -225 -185q-116 0 -174.5 77t-58.5 196q0 72 23 131.5t77.5 100.5t132.5 41q79 0 132.5 -43t75.5 -107t19 -140z" glyph-name="e" horiz-adv-x="535" unicode="e"/><glyph d="M262 516v-53h-102v-463h-63v463h-88v53h88v47q0 74 27 112.5t98 38.5q26 0 53 -4v-54q-28 5 -46 5q-20 0 -33.5 -5.5t-20.5 -13t-10.5 -23t-4 -26t-0.5 -32.5v-45h102z" glyph-name="f" horiz-adv-x="265" unicode="f"/><glyph d="M499 516v-474q0 -121 -54 -184.5t-175 -63.5q-85 0 -146.5 39.5t-67.5 116.5h63q9 -53 51 -78t100 -25q86 0 126 49t40 146v70h-2q-22 -49 -65.5 -77.5t-98.5 -28.5q-118 0 -175.5 73t-57.5 192q0 111 62.5 185.5t170.5 74.5q55 0 99.5 -29.5t64.5 -74.5h2v89h63zM270 59 q78 0 122 60.5t44 144.5q0 86 -41.5 150t-124.5 64q-84 0 -127 -62.5t-43 -151.5q0 -85 43.5 -145t126.5 -60z" glyph-name="g" horiz-adv-x="562" unicode="g"/><glyph d="M62 0v714h63v-287h2q18 46 64 75t101 29q104 0 146.5 -50.5t42.5 -148.5v-332h-63v322q0 156 -131 156q-74 0 -117 -49.5t-45 -127.5v-301h-63z" glyph-name="h" horiz-adv-x="543" unicode="h"/><glyph d="M64 613v101h63v-101h-63zM64 0v516h63v-516h-63z" glyph-name="i" horiz-adv-x="191" unicode="i"/><glyph d="M64 613v101h63v-101h-63zM64 -63v579h63v-564q0 -143 -110 -143q-7 0 -22 1t-22 1v52q23 -2 34 -1q34 0 45.5 19t11.5 56z" glyph-name="j" horiz-adv-x="191" unicode="j"/><glyph d="M63 0v714h63v-448l286 250h84l-220 -191l235 -325h-79l-204 281l-102 -85v-196h-63z" glyph-name="k" horiz-adv-x="506" unicode="k"/><glyph d="M64 0v714h63v-714h-63z" glyph-name="l" horiz-adv-x="191" unicode="l"/><glyph d="M63 0v516h58v-87h3q53 102 169 102q53 0 93.5 -26t54.5 -75q22 49 66.5 75t97.5 26q171 0 171 -181v-350h-63v347q0 66 -28 98.5t-94 32.5q-140 0 -140 -186v-292h-63v350q0 128 -108 128q-77 0 -115.5 -52t-38.5 -138v-288h-63z" glyph-name="m" horiz-adv-x="839" unicode="m"/><glyph d="M62 0v516h63v-89h2q18 46 64 75t101 29q104 0 146.5 -50.5t42.5 -148.5v-332h-63v322q0 156 -131 156q-74 0 -117 -49.5t-45 -127.5v-301h-63z" glyph-name="n" horiz-adv-x="543" unicode="n"/><glyph d="M281 478q-85 0 -133 -65.5t-48 -154.5t48 -154.5t133 -65.5t133 65.5t48 154.5t-48 154.5t-133 65.5zM281 531q114 0 179 -78.5t65 -194.5t-65 -194.5t-179 -78.5t-179 78.5t-65 194.5t65 194.5t179 78.5z" glyph-name="o" horiz-adv-x="562" unicode="o"/><glyph d="M63 -191v707h58v-98h2q22 53 71.5 83t112.5 30q112 0 172 -78t60 -195t-60 -195t-172 -78q-60 0 -110 29.5t-69 83.5h-2v-289h-63zM476 258q0 57 -16.5 105t-56 81.5t-96.5 33.5q-181 0 -181 -220q0 -91 44.5 -155.5t136.5 -64.5q57 0 96.5 33.5t56 81.5t16.5 105z" glyph-name="p" horiz-adv-x="580" unicode="p"/><glyph d="M517 516v-707h-63v289h-2q-19 -54 -69 -83.5t-110 -29.5q-112 0 -172 78t-60 195t60 195t172 78q58 0 111 -31.5t73 -81.5h2v98h58zM104 258q0 -57 16.5 -105t56 -81.5t96.5 -33.5q92 0 136.5 64.5t44.5 155.5t-44.5 155.5t-136.5 64.5q-57 0 -96.5 -33.5t-56 -81.5 t-16.5 -105z" glyph-name="q" horiz-adv-x="580" unicode="q"/><glyph d="M63 0v516h58v-121h2q24 64 75 97.5t120 30.5v-63q-84 4 -138 -49.5t-54 -135.5v-275h-63z" glyph-name="r" horiz-adv-x="321" unicode="r"/><glyph d="M435 365h-63q-2 56 -40 84.5t-95 28.5q-49 0 -85.5 -21.5t-36.5 -67.5q0 -60 107 -87l84 -19q62 -9 104.5 -45t42.5 -98q0 -77 -62.5 -116t-144.5 -39q-196 0 -212 182h63q4 -62 45.5 -95.5t106.5 -33.5q54 0 97.5 24.5t43.5 73.5q0 41 -30 61t-83 33l-81 18 q-71 18 -107.5 48t-36.5 90q0 73 58 109t136 36q81 0 133 -42.5t56 -123.5z" glyph-name="s" horiz-adv-x="487" unicode="s"/><glyph d="M163 671v-155h105v-53h-105v-348q0 -34 10 -50t41 -18q27 0 54 3v-54q-10 0 -28 -1t-28 -1q-63 0 -88 25t-24 91v353h-90v53h90v155h63z" glyph-name="t" horiz-adv-x="302" unicode="t"/><glyph d="M481 516v-516h-58v93h-2q-24 -51 -72 -79.5t-106 -28.5q-181 0 -181 196v335h63v-336q2 -72 33.5 -107t104.5 -35q76 0 115.5 60.5t39.5 146.5v271h63z" glyph-name="u" horiz-adv-x="543" unicode="u"/><glyph d="M204 0l-199 516h70l162 -453h2l160 453h65l-193 -516h-67z" glyph-name="v" horiz-adv-x="469" unicode="v"/><glyph d="M177 0l-166 516h67l132 -442h2l126 442h71l126 -442h2l132 442h67l-166 -516h-69l-127 434h-2l-126 -434h-69z" glyph-name="w" horiz-adv-x="747" unicode="w"/><glyph d="M4 0l200 268l-185 248h79l147 -196l144 196h79l-186 -247l201 -269h-80l-162 217l-159 -217h-78z" glyph-name="x" horiz-adv-x="487" unicode="x"/><glyph d="M211 2l-206 514h67l170 -440l159 440h63l-224 -595q-29 -68 -54 -90t-82 -22q-38 2 -48 5v53q25 -5 43 -5q20 0 34 5t24.5 18.5t15.5 23.5t16 34z" glyph-name="y" horiz-adv-x="469" unicode="y"/><glyph d="M435 471l-341 -418h355v-53h-431v51l337 412h-314v53h394v-45z" glyph-name="z" horiz-adv-x="469" unicode="z"/><glyph d="M299 -191h-50q-42 0 -65 33.5t-23 91.5v148q0 160 -72 160v53q72 0 72 160v149q0 58 23 91.5t65 33.5h50v-53h-20q-28 0 -41.5 -29.5t-13.5 -73.5v-141q0 -38 -8.5 -69.5t-22 -50.5t-22.5 -28t-17 -14v-2q8 -5 17 -14t22.5 -28t22 -50.5t8.5 -69.5v-141q0 -45 13.5 -74 t41.5 -29h20v-53z" glyph-name="braceleft" horiz-adv-x="345" unicode="{"/><glyph d="M91 -214v1000h53v-1000h-53z" glyph-name="bar" horiz-adv-x="234" unicode="|"/><glyph d="M46 729h50q42 0 65 -33.5t23 -91.5v-148q0 -160 72 -160v-53q-72 0 -72 -160v-149q0 -58 -23 -91.5t-65 -33.5h-50v53h20q28 0 41.5 29t13.5 74v141q0 38 8.5 69.5t22 50.5t22.5 28t17 14v2q-8 5 -17 14t-22.5 28t-22 50.5t-8.5 69.5v141q0 44 -13.5 73.5t-41.5 29.5h-20 v53z" glyph-name="braceright" horiz-adv-x="345" unicode="}"/><glyph d="M501 315l36 -36q-27 -41 -55 -63.5t-70 -22.5t-110 33q-70 32 -107 32q-52 0 -84 -69l-36 36q42 86 125 86q41 0 115 -32q76 -33 98 -33q27 0 46.5 18t41.5 51z" glyph-name="asciitilde" horiz-adv-x="612" unicode="~"/><glyph glyph-name="uni00A0" horiz-adv-x="278"/><glyph d="M85 516h84v-106h-84v106zM146 338l15 -323v-206h-68v206l15 323h38z" glyph-name="exclamdown" horiz-adv-x="253" unicode="¡"/><glyph d="M513 354h-63q-26 120 -135 124v-440q54 2 93.5 44t45.5 103h63q-12 -90 -66 -143.5t-136 -56.5v-101h-39v102q-101 9 -158.5 86.5t-57.5 185.5q0 109 57.5 185.5t158.5 85.5v89h39v-87q81 -2 135 -48t63 -129zM276 39v437q-73 -11 -113 -74t-40 -144t40 -144.5t113 -74.5 z" glyph-name="cent" horiz-adv-x="568" unicode="¢"/><glyph d="M52 330v32h63q-55 87 -55 161q0 101 66.5 153.5t161.5 52.5q111 0 172.5 -63t59.5 -174h-63q0 84 -43.5 134t-125.5 50q-68 0 -116.5 -40.5t-48.5 -116.5q0 -31 8.5 -55.5t25.5 -53.5t25 -48h160v-32h-142q24 -38 24 -97q0 -98 -110 -182l2 -2q58 30 97 30q53 0 102 -20 q53 -21 86 -21q64 0 115 56l32 -48q-69 -61 -146 -61q-44 0 -105.5 20.5t-101.5 20.5q-12 0 -23.5 -1.5t-18.5 -3.5t-17.5 -7t-15 -7.5t-17.5 -10.5t-18 -11l-36 54q52 44 82 87.5t30 98.5q0 58 -28 105h-81z" glyph-name="sterling" horiz-adv-x="568" unicode="£"/><glyph d="M100 346q0 -80 54 -135t131 -55t131 55t54 135t-54 135t-131 55t-131 -55t-54 -135zM35 136l57 57q-55 68 -55 153q0 88 54 154l-56 56l38 38l56 -56q66 56 156 56q85 0 153 -55l55 55l38 -38l-54 -54q56 -69 56 -156t-56 -156l54 -54l-38 -38l-55 55q-64 -55 -153 -55 q-87 0 -156 56l-56 -56z" glyph-name="currency" horiz-adv-x="568" unicode="¤"/><glyph d="M116 304v45h106l-210 365h72l199 -365l201 365h69l-211 -365h109v-45h-131l-6 -10v-73h137v-45h-137v-176h-63v176h-135v45h135v73l-6 10h-129z" glyph-name="yen" horiz-adv-x="568" unicode="¥"/><glyph d="M91 411v250h53v-250h-53zM91 -89v250h53v-250h-53z" glyph-name="brokenbar" horiz-adv-x="234" unicode="¦"/><glyph d="M517 231q0 -48 -30.5 -84.5t-78.5 -55.5q50 -44 50 -109q0 -66 -50.5 -104.5t-118.5 -38.5q-86 0 -135.5 46t-49.5 131h63q-2 -52 31 -88t85 -36q47 0 79.5 22.5t32.5 66.5q0 41 -35.5 75t-86 59.5t-101 53.5t-86 71t-35.5 97q0 48 30.5 84.5t78.5 55.5q-50 44 -50 109 q0 66 50.5 104.5t118.5 38.5q86 0 135.5 -46t49.5 -131h-63q2 52 -31 88t-85 36q-47 0 -79.5 -22.5t-32.5 -66.5q0 -41 35.5 -75t86 -59.5t101 -53.5t86 -71t35.5 -97zM454 230q0 37 -30 71t-65.5 54.5t-88 48.5t-74.5 43q-82 -34 -82 -108q0 -35 29.5 -69t65 -55 t87.5 -49.5t74 -43.5q84 35 84 108z" glyph-name="section" horiz-adv-x="568" unicode="§"/><glyph d="M44 610h-68v101h68v-101zM221 610h-68v101h68v-101z" glyph-name="dieresis" unicode="¨"/><glyph d="M600 435h-51q-9 46 -44.5 75.5t-88.5 30.5q-78 0 -121.5 -51.5t-43.5 -132.5t43.5 -132.5t121.5 -51.5q53 0 88.5 29.5t44.5 76.5h51q-9 -71 -60.5 -111t-124.5 -40q-100 0 -158.5 64t-58.5 165t58.5 165t158.5 64q73 0 124.5 -40t60.5 -111zM720 357q0 134 -90 226.5 t-224 92.5q-135 0 -224.5 -92t-89.5 -227t89.5 -227t224.5 -92q134 0 224 92.5t90 226.5zM778 357q0 -157 -107 -264.5t-265 -107.5t-265 107.5t-107 264.5t107 264.5t265 107.5t265 -107.5t107 -264.5z" glyph-name="copyright" horiz-adv-x="812" unicode="©"/><glyph d="M60 597h-47q6 109 140 109q128 0 128 -100v-172q2 -23 25 -23q7 0 13 3v-34q-21 -3 -27 -3q-29 0 -38.5 13t-9.5 43h-2q-41 -65 -123 -65q-54 0 -86 23.5t-32 72.5q0 26 10.5 44.5t23.5 28.5t40 17t43.5 9t51.5 5q7 1 11 1q29 3 41 9t12 22q0 67 -88 67q-37 0 -61 -18 t-25 -52zM234 502v47h-2q-1 -3 -5.5 -5.5t-8.5 -3.5t-11 -2.5t-9 -2.5q-13 -2 -33.5 -5t-32 -5t-27 -5.5t-24 -7.5t-17.5 -10t-12.5 -15t-3.5 -21q0 -25 22 -42t47 -17q48 0 82.5 26t34.5 69z" glyph-name="ordfeminine" horiz-adv-x="323" unicode="ª"/><glyph d="M199 119l-133 125v62l133 125v-67l-94 -89l94 -89v-67zM360 119l-133 125v62l133 125v-67l-94 -89l94 -89v-67z" glyph-name="guillemotleft" horiz-adv-x="438" unicode="«"/><glyph d="M505 111v214h-450v53h503v-267h-53z" glyph-name="logicalnot" horiz-adv-x="612" unicode="¬"/><glyph d="M316 246h-250v58h250v-58z" glyph-name="uni00AD" horiz-adv-x="382" unicode="­"/><glyph d="M324 378h70q25 0 39 0.5t33.5 4.5t30 12t18.5 22.5t8 35.5q0 74 -102 74h-97v-149zM324 333v-191h-53v430h165q140 0 140 -119q0 -100 -108 -120l128 -191h-62l-121 191h-89zM406 676q-135 0 -224.5 -92t-89.5 -227t89.5 -227t224.5 -92q134 0 224 92.5t90 226.5 t-90 226.5t-224 92.5zM406 729q158 0 265 -107.5t107 -264.5t-107 -264.5t-265 -107.5t-265 107.5t-107 264.5t107 264.5t265 107.5z" glyph-name="registered" horiz-adv-x="812" unicode="®"/><glyph d="M263 638h-329v45h329v-45z" glyph-name="macron" unicode="¯"/><glyph d="M101 562q0 -44 30.5 -74.5t74.5 -30.5t74.5 30.5t30.5 74.5t-30.5 74.5t-74.5 30.5t-74.5 -30.5t-30.5 -74.5zM62 562q0 60 42 102t102 42q59 0 101.5 -42.5t42.5 -101.5q0 -60 -42 -102t-102 -42q-61 0 -102.5 41.5t-41.5 102.5z" glyph-name="degree" horiz-adv-x="412" unicode="°"/><glyph d="M55 0v53h503v-53h-503zM280 323v180h53v-180h225v-53h-225v-180h-53v180h-224v53h224z" glyph-name="plusminus" horiz-adv-x="612" unicode="±"/><glyph d="M77 553h-47q-2 71 36 112t114 41q66 0 106 -32t40 -93q0 -48 -30.5 -82.5t-84.5 -66.5q-8 -5 -36 -21t-43.5 -26.5t-33 -30.5t-23.5 -41h248v-39h-302q1 45 25.5 81t55 55.5t73.5 46.5t65 48q39 37 39 80q0 38 -30 60t-73 22q-51 0 -75 -32.5t-24 -81.5z" glyph-name="twosuperior" horiz-adv-x="345" unicode="²"/><glyph d="M141 478v39h35q36 0 64.5 19t28.5 55q0 37 -28 56.5t-70 19.5q-48 0 -74.5 -28.5t-25.5 -74.5h-47q1 64 39.5 103t107.5 39q61 0 103 -28.5t42 -82.5q0 -35 -20 -60t-57 -33v-2q45 -6 69.5 -33.5t24.5 -69.5q0 -62 -46 -97t-115 -35q-76 0 -119.5 38.5t-38.5 108.5h47 q-2 -48 27.5 -78t82.5 -30q46 0 80.5 24.5t34.5 65.5q0 40 -31 62t-79 22h-35z" glyph-name="threesuperior" horiz-adv-x="345" unicode="³"/><glyph d="M222 731l-132 -141h-51l105 141h78z" glyph-name="acute" unicode="´"/><glyph d="M484 516v-516h-58v93h-2q-24 -51 -72 -79.5t-106 -28.5q-70 0 -117 35v-211h-64v707h63v-336q2 -72 33.5 -107t104.5 -35q76 0 115.5 60.5t39.5 146.5v271h63z" glyph-name="mu" horiz-adv-x="549" unicode="µ"/><glyph d="M279 -177v505q-87 0 -147 55.5t-60 134.5q0 95 58.5 145.5t164.5 50.5h230v-891h-63v838h-120v-838h-63z" glyph-name="paragraph" horiz-adv-x="612" unicode="¶"/><glyph d="M145 375q24 0 41.5 -18t17.5 -42q0 -23 -18 -40.5t-41 -17.5q-24 0 -41.5 18t-17.5 42q0 23 18 40.5t41 17.5z" glyph-name="periodcentered" horiz-adv-x="290" unicode="·"/><glyph d="M97 0h35l-44 -54q22 5 50 3q66 -11 66 -66q0 -42 -33.5 -64t-76.5 -22q-53 0 -94 21l14 32q34 -14 79 -14q53 0 53 43q0 17 -12.5 27.5t-30.5 10.5q-33 0 -51 -8l-16 15z" glyph-name="cedilla" unicode="¸"/><glyph d="M41 584v39q34 1 49.5 3t35 9t29 22t14.5 40h40v-423h-47v310h-121z" glyph-name="onesuperior" horiz-adv-x="345" unicode="¹"/><glyph d="M173 407q55 0 86 39t31 91t-31 91t-86 39t-86 -39t-31 -91t31 -91t86 -39zM168 368q-75 0 -117 48t-42 121t42 121t117 48q81 0 125 -47.5t44 -121.5t-44 -121.5t-125 -47.5z" glyph-name="ordmasculine" horiz-adv-x="346" unicode="º"/><glyph d="M78 119v67l94 89l-94 89v67l133 -125v-62zM239 119v67l94 89l-94 89v67l133 -125v-62z" glyph-name="guillemotright" horiz-adv-x="438" unicode="»"/><glyph d="M646 355l-162 -216h164v216h-2zM648 0v100h-210v39l213 284h44v-284h68v-39h-68v-100h-47zM54 584v39q34 1 49.5 3t35 9t29 22t14.5 40h40v-423h-47v310h-121zM139 -34l453 759h47l-452 -759h-48z" glyph-name="onequarter" horiz-adv-x="846" unicode="¼"/><glyph d="M542 279h-47q-2 71 36 112t114 41q66 0 106 -32t40 -93q0 -48 -30.5 -82.5t-84.5 -66.5q-8 -5 -36 -21t-43.5 -26.5t-33 -30.5t-23.5 -41h248v-39h-302q1 45 25.5 81t55 55.5t73.5 46.5t65 48q39 37 39 80q0 38 -30 60t-73 22q-51 0 -75 -32.5t-24 -81.5zM54 584v39 q34 1 49.5 3t35 9t29 22t14.5 40h40v-423h-47v310h-121zM139 -34l453 759h47l-452 -759h-48z" glyph-name="onehalf" horiz-adv-x="846" unicode="½"/><glyph d="M646 355l-162 -216h164v216h-2zM648 0v100h-210v39l213 284h44v-284h68v-39h-68v-100h-47zM179 -34l453 759h47l-452 -759h-48zM141 478v39h35q36 0 64.5 19t28.5 55q0 37 -28 56.5t-70 19.5q-48 0 -74.5 -28.5t-25.5 -74.5h-47q1 64 39.5 103t107.5 39q61 0 103 -28.5 t42 -82.5q0 -35 -20 -60t-57 -33v-2q45 -6 69.5 -33.5t24.5 -69.5q0 -62 -46 -97t-115 -35q-76 0 -119.5 38.5t-38.5 108.5h47q-2 -48 27.5 -78t82.5 -30q46 0 80.5 24.5t34.5 65.5q0 40 -31 62t-79 22h-35z" glyph-name="threequarters" horiz-adv-x="846" unicode="¾"/><glyph d="M313 516v-106h-84v106h84zM427 29h63q0 -108 -60 -171.5t-167 -63.5q-86 0 -144.5 50.5t-58.5 134.5q0 52 22 90.5t65 79.5q10 10 31 30.5t24.5 24t15 18.5t12 21t5 23.5t4.5 33t1 44.5h63q1 -46 -3.5 -76.5t-22.5 -58.5t-34 -45t-55 -53q-65 -61 -65 -129q0 -59 42 -97 t101 -38q79 0 121 51t40 131z" glyph-name="questiondown" horiz-adv-x="549" unicode="¿"/><glyph d="M315 646l-143 -366h281zM-8 0l288 714h76l280 -714h-73l-87 222h-325l-86 -222h-73zM306 778l-132 141h78l105 -141h-51z" glyph-name="Agrave" horiz-adv-x="628" unicode="À"/><glyph d="M315 646l-143 -366h281zM-8 0l288 714h76l280 -714h-73l-87 222h-325l-86 -222h-73zM463 921l-132 -141h-51l105 141h78z" glyph-name="Aacute" horiz-adv-x="628" unicode="Á"/><glyph d="M315 646l-143 -366h281zM-8 0l288 714h76l280 -714h-73l-87 222h-325l-86 -222h-73zM350 920l114 -141h-65l-86 102l-88 -102h-58l114 141h69z" glyph-name="Acircumflex" horiz-adv-x="628" unicode="Â"/><glyph d="M315 646l-143 -366h281zM-8 0l288 714h76l280 -714h-73l-87 222h-325l-86 -222h-73zM435 900h38q-7 -39 -28.5 -67t-58.5 -28q-30 0 -75 23t-63 23q-38 0 -50 -51h-39q4 38 28 67t61 29q31 0 75 -22t60 -22q38 0 52 48z" glyph-name="Atilde" horiz-adv-x="628" unicode="Ã"/><glyph d="M315 646l-143 -366h281zM-8 0l288 714h76l280 -714h-73l-87 222h-325l-86 -222h-73zM261 800h-68v101h68v-101zM438 800h-68v101h68v-101z" glyph-name="Adieresis" horiz-adv-x="628" unicode="Ä"/><glyph d="M315 646l-143 -366h281zM-8 0l288 714h76l280 -714h-73l-87 222h-325l-86 -222h-73zM249 860q0 -29 19.5 -48.5t48.5 -19.5t48.5 19.5t19.5 48.5t-19.5 48.5t-48.5 19.5t-48.5 -19.5t-19.5 -48.5zM210 860q0 44 31.5 75.5t75.5 31.5t75.5 -31.5t31.5 -75.5t-31.5 -75.5 t-75.5 -31.5t-75.5 31.5t-31.5 75.5z" glyph-name="Aring" horiz-adv-x="628" unicode="Å"/><glyph d="M215 284h229v372h-40zM512 340v-282h371v-58h-439v226h-259l-116 -226h-77l374 714h513v-58h-367v-258h344v-58h-344z" glyph-name="AE" horiz-adv-x="905" unicode="Æ"/><glyph d="M661 498h-68q-18 81 -78.5 127t-140.5 46q-68 0 -121 -27t-84.5 -72t-47.5 -99.5t-16 -115.5t16 -115.5t47.5 -99.5t84.5 -72t121 -27q96 0 157.5 65t71.5 164h68q-14 -133 -93 -210t-204 -77h-1l-32 -39q22 5 50 3q66 -11 66 -66q0 -42 -33.5 -64t-76.5 -22 q-53 0 -94 21l14 32q34 -14 79 -14q53 0 53 43q0 17 -12.5 27.5t-30.5 10.5q-33 0 -51 -8l-16 15l50 63q-61 4 -113 28q-92 45 -140.5 136.5t-48.5 205.5q0 75 21.5 141t62 118t106 82.5t147.5 30.5q108 0 190.5 -62t96.5 -169z" glyph-name="Ccedilla" horiz-adv-x="702" unicode="Ç"/><glyph d="M71 0v714h493v-58h-425v-258h398v-58h-398v-282h430v-58h-498zM315 778l-132 141h78l105 -141h-51z" glyph-name="Egrave" horiz-adv-x="610" unicode="È"/><glyph d="M71 0v714h493v-58h-425v-258h398v-58h-398v-282h430v-58h-498zM462 921l-132 -141h-51l105 141h78z" glyph-name="Eacute" horiz-adv-x="610" unicode="É"/><glyph d="M71 0v714h493v-58h-425v-258h398v-58h-398v-282h430v-58h-498zM354 920l114 -141h-65l-86 102l-88 -102h-58l114 141h69z" glyph-name="Ecircumflex" horiz-adv-x="610" unicode="Ê"/><glyph d="M71 0v714h493v-58h-425v-258h398v-58h-398v-282h430v-58h-498zM262 800h-68v101h68v-101zM439 800h-68v101h68v-101z" glyph-name="Edieresis" horiz-adv-x="610" unicode="Ë"/><glyph d="M76 0v714h68v-714h-68zM93 778l-132 141h78l105 -141h-51z" glyph-name="Igrave" horiz-adv-x="220" unicode="Ì"/><glyph d="M76 0v714h68v-714h-68zM259 921l-132 -141h-51l105 141h78z" glyph-name="Iacute" horiz-adv-x="220" unicode="Í"/><glyph d="M76 0v714h68v-714h-68zM145 920l114 -141h-65l-86 102l-88 -102h-58l114 141h69z" glyph-name="Icircumflex" horiz-adv-x="220" unicode="Î"/><glyph d="M76 0v714h68v-714h-68zM56 800h-68v101h68v-101zM233 800h-68v101h68v-101z" glyph-name="Idieresis" horiz-adv-x="220" unicode="Ï"/><glyph d="M71 393v321h247q328 -8 328 -357t-328 -357h-247v348h-72v45h72zM139 656v-263h236v-45h-236v-290h145q155 0 224.5 70t69.5 229t-69.5 229t-224.5 70h-145z" glyph-name="Eth" horiz-adv-x="683" unicode="Ð"/><glyph d="M70 0v714h76l416 -604h2v604h68v-714h-76l-416 604h-2v-604h-68zM477 900h38q-7 -39 -28.5 -67t-58.5 -28q-30 0 -75 23t-63 23q-38 0 -50 -51h-39q4 38 28 67t61 29q31 0 75 -22t60 -22q38 0 52 48z" glyph-name="Ntilde" horiz-adv-x="702" unicode="Ñ"/><glyph d="M101 357q0 -61 16 -115.5t47.5 -99.5t84.5 -72t121 -27t121 27t84 72t47 99.5t16 115.5t-16 115.5t-47 99.5t-84 72t-121 27t-121 -27t-84.5 -72t-47.5 -99.5t-16 -115.5zM33 357q0 75 21.5 141t62 118t106 82.5t147.5 30.5q108 0 185.5 -53t114 -135.5t36.5 -183.5 t-36.5 -183.5t-114 -135.5t-185.5 -53q-82 0 -147.5 30.5t-106 82.5t-62 118t-21.5 141zM370 778l-132 141h78l105 -141h-51z" glyph-name="Ograve" horiz-adv-x="739" unicode="Ò"/><glyph d="M101 357q0 -61 16 -115.5t47.5 -99.5t84.5 -72t121 -27t121 27t84 72t47 99.5t16 115.5t-16 115.5t-47 99.5t-84 72t-121 27t-121 -27t-84.5 -72t-47.5 -99.5t-16 -115.5zM33 357q0 75 21.5 141t62 118t106 82.5t147.5 30.5q108 0 185.5 -53t114 -135.5t36.5 -183.5 t-36.5 -183.5t-114 -135.5t-185.5 -53q-82 0 -147.5 30.5t-106 82.5t-62 118t-21.5 141zM527 921l-132 -141h-51l105 141h78z" glyph-name="Oacute" horiz-adv-x="739" unicode="Ó"/><glyph d="M101 357q0 -61 16 -115.5t47.5 -99.5t84.5 -72t121 -27t121 27t84 72t47 99.5t16 115.5t-16 115.5t-47 99.5t-84 72t-121 27t-121 -27t-84.5 -72t-47.5 -99.5t-16 -115.5zM33 357q0 75 21.5 141t62 118t106 82.5t147.5 30.5q108 0 185.5 -53t114 -135.5t36.5 -183.5 t-36.5 -183.5t-114 -135.5t-185.5 -53q-82 0 -147.5 30.5t-106 82.5t-62 118t-21.5 141zM406 920l114 -141h-65l-86 102l-88 -102h-58l114 141h69z" glyph-name="Ocircumflex" horiz-adv-x="739" unicode="Ô"/><glyph d="M101 357q0 -61 16 -115.5t47.5 -99.5t84.5 -72t121 -27t121 27t84 72t47 99.5t16 115.5t-16 115.5t-47 99.5t-84 72t-121 27t-121 -27t-84.5 -72t-47.5 -99.5t-16 -115.5zM33 357q0 75 21.5 141t62 118t106 82.5t147.5 30.5q108 0 185.5 -53t114 -135.5t36.5 -183.5 t-36.5 -183.5t-114 -135.5t-185.5 -53q-82 0 -147.5 30.5t-106 82.5t-62 118t-21.5 141zM490 900h38q-7 -39 -28.5 -67t-58.5 -28q-29 0 -75 23t-63 23q-38 0 -50 -51h-39q4 38 28 67t61 29q31 0 75 -22t60 -22q38 0 52 48z" glyph-name="Otilde" horiz-adv-x="739" unicode="Õ"/><glyph d="M101 357q0 -61 16 -115.5t47.5 -99.5t84.5 -72t121 -27t121 27t84 72t47 99.5t16 115.5t-16 115.5t-47 99.5t-84 72t-121 27t-121 -27t-84.5 -72t-47.5 -99.5t-16 -115.5zM33 357q0 75 21.5 141t62 118t106 82.5t147.5 30.5q108 0 185.5 -53t114 -135.5t36.5 -183.5 t-36.5 -183.5t-114 -135.5t-185.5 -53q-82 0 -147.5 30.5t-106 82.5t-62 118t-21.5 141zM313 800h-68v101h68v-101zM490 800h-68v101h68v-101z" glyph-name="Odieresis" horiz-adv-x="739" unicode="Ö"/><glyph d="M268 251l-188 189l37 37l189 -189l189 189l37 -37l-189 -189l189 -189l-37 -37l-189 188l-189 -188l-37 37z" glyph-name="multiply" horiz-adv-x="612" unicode="×"/><glyph d="M671 719l26 -23l-73 -81q82 -100 82 -258q0 -101 -36.5 -183.5t-114 -135.5t-185.5 -53q-142 0 -231 89l-76 -86l-27 25l79 88q-82 101 -82 256q0 75 21.5 141t62 118t106 82.5t147.5 30.5q140 0 230 -88zM159 150l398 443q-71 78 -187 78q-68 0 -121 -27t-84.5 -72 t-47.5 -99.5t-16 -115.5q0 -124 58 -207zM579 565l-397 -443q71 -79 188 -79q68 0 121 27t84 72t47 99.5t16 115.5q0 126 -59 208z" glyph-name="Oslash" horiz-adv-x="739" unicode="Ø"/><glyph d="M64 257v457h68v-442q0 -120 53 -174.5t156 -54.5t156.5 54.5t53.5 174.5v442h68v-457q0 -120 -68.5 -196t-209.5 -76q-140 0 -208.5 76.5t-68.5 195.5zM345 778l-132 141h78l105 -141h-51z" glyph-name="Ugrave" horiz-adv-x="683" unicode="Ù"/><glyph d="M64 257v457h68v-442q0 -120 53 -174.5t156 -54.5t156.5 54.5t53.5 174.5v442h68v-457q0 -120 -68.5 -196t-209.5 -76q-140 0 -208.5 76.5t-68.5 195.5zM496 921l-132 -141h-51l105 141h78z" glyph-name="Uacute" horiz-adv-x="683" unicode="Ú"/><glyph d="M64 257v457h68v-442q0 -120 53 -174.5t156 -54.5t156.5 54.5t53.5 174.5v442h68v-457q0 -120 -68.5 -196t-209.5 -76q-140 0 -208.5 76.5t-68.5 195.5zM376 920l114 -141h-65l-86 102l-88 -102h-58l114 141h69z" glyph-name="Ucircumflex" horiz-adv-x="683" unicode="Û"/><glyph d="M64 257v457h68v-442q0 -120 53 -174.5t156 -54.5t156.5 54.5t53.5 174.5v442h68v-457q0 -120 -68.5 -196t-209.5 -76q-140 0 -208.5 76.5t-68.5 195.5zM287 800h-68v101h68v-101zM464 800h-68v101h68v-101z" glyph-name="Udieresis" horiz-adv-x="683" unicode="Ü"/><glyph d="M270 0v294l-281 420h81l235 -362l234 362h81l-282 -420v-294h-68zM460 921l-132 -141h-51l105 141h78z" glyph-name="Yacute" horiz-adv-x="609" unicode="Ý"/><glyph d="M139 539v-292h234q74 0 116.5 37t42.5 109t-42.5 109t-116.5 37h-234zM71 0v714h68v-117h249q97 0 154.5 -54t57.5 -150t-57.5 -150t-154.5 -54h-249v-189h-68z" glyph-name="Thorn" horiz-adv-x="628" unicode="Þ"/><glyph d="M67 0v535q0 96 53.5 145t145.5 49q84 0 140 -47t56 -129q0 -55 -30 -96.5t-83 -53.5v-2q70 -6 109.5 -59.5t39.5 -125.5q0 -106 -61.5 -164t-160.5 -60h-25q-7 0 -25 2v55q21 -4 47 -4q68 0 115 39.5t47 120.5q0 51 -14.5 84t-44.5 50t-64.5 23t-85.5 6v53q173 0 173 130 q0 55 -38.5 90t-93.5 35q-73 0 -105 -36t-32 -110v-530h-63z" glyph-name="germandbls" horiz-adv-x="549" unicode="ß"/><glyph d="M120 358h-63q5 88 60.5 130.5t148.5 42.5q190 0 190 -166v-274q0 -38 37 -38q11 0 20 4v-53q-20 -4 -41 -4q-44 0 -59 22.5t-15 67.5h-2q-37 -55 -77.5 -80t-110.5 -25q-76 0 -124.5 38t-48.5 113q0 28 8 50.5t18.5 38t33 28t38.5 19t48.5 12.5t49.5 8.5t55 6.5 q17 2 26 3q44 4 62.5 17.5t18.5 52.5q0 59 -36 82.5t-99 23.5q-62 0 -99 -29.5t-39 -90.5zM393 200v82h-2q-8 -15 -53 -23q-17 -3 -54 -8.5t-57 -9t-48.5 -12t-43 -18.5t-26 -28.5t-11.5 -42.5q0 -46 34 -74t81 -28q76 0 128 44.5t52 117.5zM261 588l-132 141h78l105 -141 h-51z" glyph-name="agrave" horiz-adv-x="525" unicode="à"/><glyph d="M120 358h-63q5 88 60.5 130.5t148.5 42.5q190 0 190 -166v-274q0 -38 37 -38q11 0 20 4v-53q-20 -4 -41 -4q-44 0 -59 22.5t-15 67.5h-2q-37 -55 -77.5 -80t-110.5 -25q-76 0 -124.5 38t-48.5 113q0 28 8 50.5t18.5 38t33 28t38.5 19t48.5 12.5t49.5 8.5t55 6.5 q17 2 26 3q44 4 62.5 17.5t18.5 52.5q0 59 -36 82.5t-99 23.5q-62 0 -99 -29.5t-39 -90.5zM393 200v82h-2q-8 -15 -53 -23q-17 -3 -54 -8.5t-57 -9t-48.5 -12t-43 -18.5t-26 -28.5t-11.5 -42.5q0 -46 34 -74t81 -28q76 0 128 44.5t52 117.5zM413 731l-132 -141h-51l105 141 h78z" glyph-name="aacute" horiz-adv-x="525" unicode="á"/><glyph d="M120 358h-63q5 88 60.5 130.5t148.5 42.5q190 0 190 -166v-274q0 -38 37 -38q11 0 20 4v-53q-20 -4 -41 -4q-44 0 -59 22.5t-15 67.5h-2q-37 -55 -77.5 -80t-110.5 -25q-76 0 -124.5 38t-48.5 113q0 28 8 50.5t18.5 38t33 28t38.5 19t48.5 12.5t49.5 8.5t55 6.5 q17 2 26 3q44 4 62.5 17.5t18.5 52.5q0 59 -36 82.5t-99 23.5q-62 0 -99 -29.5t-39 -90.5zM393 200v82h-2q-8 -15 -53 -23q-17 -3 -54 -8.5t-57 -9t-48.5 -12t-43 -18.5t-26 -28.5t-11.5 -42.5q0 -46 34 -74t81 -28q76 0 128 44.5t52 117.5zM297 730l114 -141h-65l-86 102 l-88 -102h-58l114 141h69z" glyph-name="acircumflex" horiz-adv-x="525" unicode="â"/><glyph d="M120 358h-63q5 88 60.5 130.5t148.5 42.5q190 0 190 -166v-274q0 -38 37 -38q11 0 20 4v-53q-20 -4 -41 -4q-44 0 -59 22.5t-15 67.5h-2q-37 -55 -77.5 -80t-110.5 -25q-76 0 -124.5 38t-48.5 113q0 28 8 50.5t18.5 38t33 28t38.5 19t48.5 12.5t49.5 8.5t55 6.5 q17 2 26 3q44 4 62.5 17.5t18.5 52.5q0 59 -36 82.5t-99 23.5q-62 0 -99 -29.5t-39 -90.5zM393 200v82h-2q-8 -15 -53 -23q-17 -3 -54 -8.5t-57 -9t-48.5 -12t-43 -18.5t-26 -28.5t-11.5 -42.5q0 -46 34 -74t81 -28q76 0 128 44.5t52 117.5zM380 710h38q-7 -39 -28.5 -67 t-58.5 -28q-29 0 -75 23t-63 23q-38 0 -50 -51h-39q4 38 28 67t61 29q31 0 75 -22t60 -22q38 0 52 48z" glyph-name="atilde" horiz-adv-x="525" unicode="ã"/><glyph d="M120 358h-63q5 88 60.5 130.5t148.5 42.5q190 0 190 -166v-274q0 -38 37 -38q11 0 20 4v-53q-20 -4 -41 -4q-44 0 -59 22.5t-15 67.5h-2q-37 -55 -77.5 -80t-110.5 -25q-76 0 -124.5 38t-48.5 113q0 28 8 50.5t18.5 38t33 28t38.5 19t48.5 12.5t49.5 8.5t55 6.5 q17 2 26 3q44 4 62.5 17.5t18.5 52.5q0 59 -36 82.5t-99 23.5q-62 0 -99 -29.5t-39 -90.5zM393 200v82h-2q-8 -15 -53 -23q-17 -3 -54 -8.5t-57 -9t-48.5 -12t-43 -18.5t-26 -28.5t-11.5 -42.5q0 -46 34 -74t81 -28q76 0 128 44.5t52 117.5zM207 610h-68v101h68v-101z M384 610h-68v101h68v-101z" glyph-name="adieresis" horiz-adv-x="525" unicode="ä"/><glyph d="M120 358h-63q5 88 60.5 130.5t148.5 42.5q190 0 190 -166v-274q0 -38 37 -38q11 0 20 4v-53q-20 -4 -41 -4q-44 0 -59 22.5t-15 67.5h-2q-37 -55 -77.5 -80t-110.5 -25q-76 0 -124.5 38t-48.5 113q0 28 8 50.5t18.5 38t33 28t38.5 19t48.5 12.5t49.5 8.5t55 6.5 q17 2 26 3q44 4 62.5 17.5t18.5 52.5q0 59 -36 82.5t-99 23.5q-62 0 -99 -29.5t-39 -90.5zM393 200v82h-2q-8 -15 -53 -23q-17 -3 -54 -8.5t-57 -9t-48.5 -12t-43 -18.5t-26 -28.5t-11.5 -42.5q0 -46 34 -74t81 -28q76 0 128 44.5t52 117.5zM192 680q0 -29 19.5 -48.5 t48.5 -19.5t48.5 19.5t19.5 48.5t-19.5 48.5t-48.5 19.5t-48.5 -19.5t-19.5 -48.5zM153 680q0 44 31.5 75.5t75.5 31.5t75.5 -31.5t31.5 -75.5t-31.5 -75.5t-75.5 -31.5t-75.5 31.5t-31.5 75.5z" glyph-name="aring" horiz-adv-x="525" unicode="å"/><glyph d="M844 241h-388q-6 -87 38 -145t130 -58q123 0 153 129h63q-20 -88 -78 -135t-147 -47q-143 0 -189 130h-2q-8 -41 -43 -71.5t-80.5 -44.5t-92.5 -14q-76 0 -124.5 38t-48.5 113q0 28 8 50.5t18.5 38t33 28t38.5 19t48.5 12.5t49.5 8.5t55 6.5q17 2 26 3q44 4 62.5 17.5 t18.5 52.5q0 59 -36 82.5t-99 23.5q-62 0 -99 -29.5t-39 -90.5h-63q5 88 60.5 130.5t148.5 42.5q156 0 172 -107h2q19 51 70.5 79t110.5 28q61 0 106 -23.5t69.5 -65.5t36 -91.5t11.5 -109.5zM393 200v82h-2q-8 -15 -53 -23q-17 -3 -54 -8.5t-57 -9t-48.5 -12t-43 -18.5 t-26 -28.5t-11.5 -42.5q0 -46 34 -74t81 -28q76 0 128 44.5t52 117.5zM456 294h325q0 74 -45.5 129t-117.5 55q-75 0 -119.5 -54t-42.5 -130z" glyph-name="ae" horiz-adv-x="876" unicode="æ"/><glyph d="M490 354h-63q-27 124 -146 124q-85 0 -133 -65.5t-48 -154.5t48 -154.5t133 -65.5q58 0 101 42t49 105h63q-14 -95 -70 -147t-138 -53l-32 -39q22 5 50 3q66 -11 66 -66q0 -42 -33.5 -64t-76.5 -22q-53 0 -94 21l14 32q34 -14 79 -14q53 0 53 43q0 17 -12.5 27.5 t-30.5 10.5q-33 0 -51 -8l-16 15l50 63q-44 5 -76 20q-67 33 -103 99t-36 152q0 116 65 194.5t179 78.5q86 0 142 -45t67 -132z" glyph-name="ccedilla" horiz-adv-x="532" unicode="ç"/><glyph d="M100 294h334q-2 75 -47 129.5t-117 54.5q-73 0 -117 -53.5t-53 -130.5zM497 241h-397q0 -79 43.5 -141t126.5 -62q129 0 162 132h63q-43 -185 -225 -185q-116 0 -174.5 77t-58.5 196q0 72 23 131.5t77.5 100.5t132.5 41q79 0 132.5 -43t75.5 -107t19 -140zM268 588 l-132 141h78l105 -141h-51z" glyph-name="egrave" horiz-adv-x="535" unicode="è"/><glyph d="M100 294h334q-2 75 -47 129.5t-117 54.5q-73 0 -117 -53.5t-53 -130.5zM497 241h-397q0 -79 43.5 -141t126.5 -62q129 0 162 132h63q-43 -185 -225 -185q-116 0 -174.5 77t-58.5 196q0 72 23 131.5t77.5 100.5t132.5 41q79 0 132.5 -43t75.5 -107t19 -140zM420 731 l-132 -141h-51l105 141h78z" glyph-name="eacute" horiz-adv-x="535" unicode="é"/><glyph d="M100 294h334q-2 75 -47 129.5t-117 54.5q-73 0 -117 -53.5t-53 -130.5zM497 241h-397q0 -79 43.5 -141t126.5 -62q129 0 162 132h63q-43 -185 -225 -185q-116 0 -174.5 77t-58.5 196q0 72 23 131.5t77.5 100.5t132.5 41q79 0 132.5 -43t75.5 -107t19 -140zM306 730 l114 -141h-65l-86 102l-88 -102h-58l114 141h69z" glyph-name="ecircumflex" horiz-adv-x="535" unicode="ê"/><glyph d="M100 294h334q-2 75 -47 129.5t-117 54.5q-73 0 -117 -53.5t-53 -130.5zM497 241h-397q0 -79 43.5 -141t126.5 -62q129 0 162 132h63q-43 -185 -225 -185q-116 0 -174.5 77t-58.5 196q0 72 23 131.5t77.5 100.5t132.5 41q79 0 132.5 -43t75.5 -107t19 -140zM217 610h-68 v101h68v-101zM394 610h-68v101h68v-101z" glyph-name="edieresis" horiz-adv-x="535" unicode="ë"/><glyph d="M127 0h-63v516h63v-516zM77 588l-132 141h78l105 -141h-51z" glyph-name="igrave" horiz-adv-x="191" unicode="ì"/><glyph d="M127 0h-63v516h63v-516zM245 731l-132 -141h-51l105 141h78z" glyph-name="iacute" horiz-adv-x="191" unicode="í"/><glyph d="M127 0h-63v516h63v-516zM131 730l114 -141h-65l-86 102l-88 -102h-58l114 141h69z" glyph-name="icircumflex" horiz-adv-x="191" unicode="î"/><glyph d="M127 0h-63v516h63v-516zM42 610h-68v101h68v-101zM219 610h-68v101h68v-101z" glyph-name="idieresis" horiz-adv-x="191" unicode="ï"/><glyph d="M141 596l100 56q-59 38 -93 55l36 35q69 -37 104 -64l114 64l33 -32l-109 -61q196 -159 196 -391q0 -119 -62.5 -196t-182.5 -77q-116 0 -176.5 73.5t-60.5 190.5q0 109 63.5 183t173.5 74q96 0 133 -40h2q-46 87 -133 157l-105 -59zM282 453q-91 0 -135 -57.5 t-44 -147.5q0 -89 44.5 -149.5t132.5 -60.5q86 0 132.5 58t46.5 154q0 84 -44 143.5t-133 59.5z" glyph-name="eth" horiz-adv-x="568" unicode="ð"/><glyph d="M62 0v516h63v-89h2q18 46 64 75t101 29q104 0 146.5 -50.5t42.5 -148.5v-332h-63v322q0 156 -131 156q-74 0 -117 -49.5t-45 -127.5v-301h-63zM390 710h38q-7 -39 -28.5 -67t-58.5 -28q-29 0 -75 23t-63 23q-38 0 -50 -51h-39q4 38 28 67t61 29q31 0 75 -22t60 -22 q38 0 52 48z" glyph-name="ntilde" horiz-adv-x="543" unicode="ñ"/><glyph d="M281 478q-85 0 -133 -65.5t-48 -154.5t48 -154.5t133 -65.5t133 65.5t48 154.5t-48 154.5t-133 65.5zM281 531q114 0 179 -78.5t65 -194.5t-65 -194.5t-179 -78.5t-179 78.5t-65 194.5t65 194.5t179 78.5zM281 588l-132 141h78l105 -141h-51z" glyph-name="ograve" horiz-adv-x="562" unicode="ò"/><glyph d="M281 478q-85 0 -133 -65.5t-48 -154.5t48 -154.5t133 -65.5t133 65.5t48 154.5t-48 154.5t-133 65.5zM281 531q114 0 179 -78.5t65 -194.5t-65 -194.5t-179 -78.5t-179 78.5t-65 194.5t65 194.5t179 78.5zM434 731l-132 -141h-51l105 141h78z" glyph-name="oacute" horiz-adv-x="562" unicode="ó"/><glyph d="M281 478q-85 0 -133 -65.5t-48 -154.5t48 -154.5t133 -65.5t133 65.5t48 154.5t-48 154.5t-133 65.5zM281 531q114 0 179 -78.5t65 -194.5t-65 -194.5t-179 -78.5t-179 78.5t-65 194.5t65 194.5t179 78.5zM317 730l114 -141h-65l-86 102l-88 -102h-58l114 141h69z" glyph-name="ocircumflex" horiz-adv-x="562" unicode="ô"/><glyph d="M281 478q-85 0 -133 -65.5t-48 -154.5t48 -154.5t133 -65.5t133 65.5t48 154.5t-48 154.5t-133 65.5zM281 531q114 0 179 -78.5t65 -194.5t-65 -194.5t-179 -78.5t-179 78.5t-65 194.5t65 194.5t179 78.5zM402 710h38q-7 -39 -28.5 -67t-58.5 -28q-29 0 -75 23t-63 23 q-38 0 -50 -51h-39q4 38 28 67t61 29q31 0 75 -22t60 -22q38 0 52 48z" glyph-name="otilde" horiz-adv-x="562" unicode="õ"/><glyph d="M281 478q-85 0 -133 -65.5t-48 -154.5t48 -154.5t133 -65.5t133 65.5t48 154.5t-48 154.5t-133 65.5zM281 531q114 0 179 -78.5t65 -194.5t-65 -194.5t-179 -78.5t-179 78.5t-65 194.5t65 194.5t179 78.5zM228 610h-68v101h68v-101zM405 610h-68v101h68v-101z" glyph-name="odieresis" horiz-adv-x="562" unicode="ö"/><glyph d="M250 50q0 23 16.5 39.5t39.5 16.5t39.5 -16.5t16.5 -39.5q0 -21 -17 -38.5t-38 -17.5q-23 0 -40 16.5t-17 39.5zM250 453q0 23 16.5 39.5t39.5 16.5t39.5 -16.5t16.5 -39.5q0 -21 -17 -38.5t-38 -17.5q-23 0 -40 16.5t-17 39.5zM558 225h-503v53h503v-53z" glyph-name="divide" horiz-adv-x="612" unicode="÷"/><glyph d="M503 519l22 -20l-54 -59q54 -76 54 -182q0 -116 -65 -194.5t-179 -78.5q-105 0 -168 68l-59 -64l-22 20l61 67q-56 73 -56 182q0 116 65 194.5t179 78.5q107 0 170 -68zM427 392l-273 -295q47 -59 127 -59q85 0 133 65.5t48 154.5q0 77 -35 134zM136 123l273 295 q-48 60 -128 60q-85 0 -133 -65.5t-48 -154.5q0 -77 36 -135z" glyph-name="oslash" horiz-adv-x="562" unicode="ø"/><glyph d="M481 516v-516h-58v93h-2q-24 -51 -72 -79.5t-106 -28.5q-181 0 -181 196v335h63v-336q2 -72 33.5 -107t104.5 -35q76 0 115.5 60.5t39.5 146.5v271h63zM277 588l-132 141h78l105 -141h-51z" glyph-name="ugrave" horiz-adv-x="543" unicode="ù"/><glyph d="M481 516v-516h-58v93h-2q-24 -51 -72 -79.5t-106 -28.5q-181 0 -181 196v335h63v-336q2 -72 33.5 -107t104.5 -35q76 0 115.5 60.5t39.5 146.5v271h63zM425 731l-132 -141h-51l105 141h78z" glyph-name="uacute" horiz-adv-x="543" unicode="ú"/><glyph d="M481 516v-516h-58v93h-2q-24 -51 -72 -79.5t-106 -28.5q-181 0 -181 196v335h63v-336q2 -72 33.5 -107t104.5 -35q76 0 115.5 60.5t39.5 146.5v271h63zM306 730l114 -141h-65l-86 102l-88 -102h-58l114 141h69z" glyph-name="ucircumflex" horiz-adv-x="543" unicode="û"/><glyph d="M481 516v-516h-58v93h-2q-24 -51 -72 -79.5t-106 -28.5q-181 0 -181 196v335h63v-336q2 -72 33.5 -107t104.5 -35q76 0 115.5 60.5t39.5 146.5v271h63zM217 610h-68v101h68v-101zM394 610h-68v101h68v-101z" glyph-name="udieresis" horiz-adv-x="543" unicode="ü"/><glyph d="M214 2l-206 514h67l170 -440l159 440h63l-224 -595q-29 -68 -54 -90t-82 -22q-38 2 -48 5v53q25 -5 43 -5q20 0 34 5t24.5 18.5t15.5 23.5t16 34zM400 731l-132 -141h-51l105 141h78z" glyph-name="yacute" horiz-adv-x="475" unicode="ý"/><glyph d="M66 -191v905h63v-296h2q19 53 69 83t110 30q112 0 172 -78t60 -195t-60 -195t-172 -78q-60 0 -110 29.5t-69 83.5h-2v-289h-63zM479 258q0 57 -16.5 105t-56 81.5t-96.5 33.5q-92 0 -136.5 -64.5t-44.5 -155.5t44.5 -155.5t136.5 -64.5q57 0 96.5 33.5t56 81.5t16.5 105z" glyph-name="thorn" horiz-adv-x="586" unicode="þ"/><glyph d="M214 2l-206 514h67l170 -440l159 440h63l-224 -595q-29 -68 -54 -90t-82 -22q-38 2 -48 5v53q25 -5 43 -5q20 0 34 5t24.5 18.5t15.5 23.5t16 34zM191 610h-68v101h68v-101zM368 610h-68v101h68v-101z" glyph-name="ydieresis" horiz-adv-x="475" unicode="ÿ"/><glyph d="M315 646l-143 -366h281zM-8 0l288 714h76l280 -714h-73l-87 222h-325l-86 -222h-73zM479 828h-329v45h329v-45z" glyph-name="Amacron" horiz-adv-x="628" unicode="Ā"/><glyph d="M120 358h-63q5 88 60.5 130.5t148.5 42.5q190 0 190 -166v-274q0 -38 37 -38q11 0 20 4v-53q-20 -4 -41 -4q-44 0 -59 22.5t-15 67.5h-2q-37 -55 -77.5 -80t-110.5 -25q-76 0 -124.5 38t-48.5 113q0 28 8 50.5t18.5 38t33 28t38.5 19t48.5 12.5t49.5 8.5t55 6.5 q17 2 26 3q44 4 62.5 17.5t18.5 52.5q0 59 -36 82.5t-99 23.5q-62 0 -99 -29.5t-39 -90.5zM393 200v82h-2q-8 -15 -53 -23q-17 -3 -54 -8.5t-57 -9t-48.5 -12t-43 -18.5t-26 -28.5t-11.5 -42.5q0 -46 34 -74t81 -28q76 0 128 44.5t52 117.5zM431 638h-329v45h329v-45z" glyph-name="amacron" horiz-adv-x="525" unicode="ā"/><glyph d="M315 646l-143 -366h281zM-8 0l288 714h76l280 -714h-73l-87 222h-325l-86 -222h-73zM174 914h39q2 -38 32.5 -60t70.5 -22t70 22t36 60h39q-8 -59 -46.5 -93t-98.5 -34q-61 0 -99 33.5t-43 93.5z" glyph-name="Abreve" horiz-adv-x="628" unicode="Ă"/><glyph d="M120 358h-63q5 88 60.5 130.5t148.5 42.5q190 0 190 -166v-274q0 -38 37 -38q11 0 20 4v-53q-20 -4 -41 -4q-44 0 -59 22.5t-15 67.5h-2q-37 -55 -77.5 -80t-110.5 -25q-76 0 -124.5 38t-48.5 113q0 28 8 50.5t18.5 38t33 28t38.5 19t48.5 12.5t49.5 8.5t55 6.5 q17 2 26 3q44 4 62.5 17.5t18.5 52.5q0 59 -36 82.5t-99 23.5q-62 0 -99 -29.5t-39 -90.5zM393 200v82h-2q-8 -15 -53 -23q-17 -3 -54 -8.5t-57 -9t-48.5 -12t-43 -18.5t-26 -28.5t-11.5 -42.5q0 -46 34 -74t81 -28q76 0 128 44.5t52 117.5zM121 724h39q2 -38 32.5 -60 t70.5 -22t70 22t36 60h39q-8 -59 -46.5 -93t-98.5 -34q-61 0 -99 33.5t-43 93.5z" glyph-name="abreve" horiz-adv-x="525" unicode="ă"/><glyph d="M636 0h-35q-52 -43 -67 -67t-15 -50q0 -23 12.5 -35t31.5 -12q34 0 55 41l29 -13q-30 -67 -98 -67q-43 0 -67 22.5t-24 59.5q0 57 105 121l-87 222h-325l-86 -222h-73l288 714h76zM315 646l-143 -366h281z" glyph-name="Aogonek" horiz-adv-x="628" unicode="Ą"/><glyph d="M120 358h-63q5 88 60.5 130.5t148.5 42.5q190 0 190 -166v-274q0 -38 37 -38q11 0 20 4v-53q-20 -4 -41 -4h-4q-52 -43 -67 -67t-15 -50q0 -23 12.5 -35t31.5 -12q34 0 55 41l29 -13q-30 -67 -98 -67q-43 0 -67 22.5t-24 59.5q0 35 45 78q20 19 66 48q-1 1 -3 1 q-35 18 -35 84h-2q-37 -55 -77.5 -80t-110.5 -25q-76 0 -124.5 38t-48.5 113q0 28 8 50.5t18.5 38t33 28t38.5 19t48.5 12.5t49.5 8.5t55 6.5q17 2 26 3q44 4 62.5 17.5t18.5 52.5q0 59 -36 82.5t-99 23.5q-62 0 -99 -29.5t-39 -90.5zM393 200v82h-2q-8 -15 -53 -23 q-17 -3 -54 -8.5t-57 -9t-48.5 -12t-43 -18.5t-26 -28.5t-11.5 -42.5q0 -46 34 -74t81 -28q76 0 128 44.5t52 117.5z" glyph-name="aogonek" horiz-adv-x="525" unicode="ą"/><glyph d="M661 498h-68q-18 81 -78.5 127t-140.5 46q-68 0 -121 -27t-84.5 -72t-47.5 -99.5t-16 -115.5t16 -115.5t47.5 -99.5t84.5 -72t121 -27q96 0 157.5 65t71.5 164h68q-14 -133 -93 -210t-204 -77q-82 0 -147.5 30.5t-106 82.5t-62 118t-21.5 141t21.5 141t62 118t106 82.5 t147.5 30.5q108 0 190.5 -62t96.5 -169zM525 921l-132 -141h-51l105 141h78z" glyph-name="Cacute" horiz-adv-x="702" unicode="Ć"/><glyph d="M490 354h-63q-27 124 -146 124q-85 0 -133 -65.5t-48 -154.5t48 -154.5t133 -65.5q58 0 101 42t49 105h63q-13 -94 -69.5 -147t-143.5 -53q-114 0 -179 78.5t-65 194.5t65 194.5t179 78.5q86 0 142 -45t67 -132zM432 731l-132 -141h-51l105 141h78z" glyph-name="cacute" horiz-adv-x="532" unicode="ć"/><glyph d="M661 498h-68q-18 81 -78.5 127t-140.5 46q-68 0 -121 -27t-84.5 -72t-47.5 -99.5t-16 -115.5t16 -115.5t47.5 -99.5t84.5 -72t121 -27q96 0 157.5 65t71.5 164h68q-14 -133 -93 -210t-204 -77q-82 0 -147.5 30.5t-106 82.5t-62 118t-21.5 141t21.5 141t62 118t106 82.5 t147.5 30.5q108 0 190.5 -62t96.5 -169zM408 920l114 -141h-65l-86 102l-88 -102h-58l114 141h69z" glyph-name="Ccircumflex" horiz-adv-x="702" unicode="Ĉ"/><glyph d="M490 354h-63q-27 124 -146 124q-85 0 -133 -65.5t-48 -154.5t48 -154.5t133 -65.5q58 0 101 42t49 105h63q-13 -94 -69.5 -147t-143.5 -53q-114 0 -179 78.5t-65 194.5t65 194.5t179 78.5q86 0 142 -45t67 -132zM315 730l114 -141h-65l-86 102l-88 -102h-58l114 141h69z" glyph-name="ccircumflex" horiz-adv-x="532" unicode="ĉ"/><glyph d="M661 498h-68q-18 81 -78.5 127t-140.5 46q-68 0 -121 -27t-84.5 -72t-47.5 -99.5t-16 -115.5t16 -115.5t47.5 -99.5t84.5 -72t121 -27q96 0 157.5 65t71.5 164h68q-14 -133 -93 -210t-204 -77q-82 0 -147.5 30.5t-106 82.5t-62 118t-21.5 141t21.5 141t62 118t106 82.5 t147.5 30.5q108 0 190.5 -62t96.5 -169zM404 800h-68v101h68v-101z" glyph-name="Cdotaccent" horiz-adv-x="702" unicode="Ċ"/><glyph d="M490 354h-63q-27 124 -146 124q-85 0 -133 -65.5t-48 -154.5t48 -154.5t133 -65.5q58 0 101 42t49 105h63q-13 -94 -69.5 -147t-143.5 -53q-114 0 -179 78.5t-65 194.5t65 194.5t179 78.5q86 0 142 -45t67 -132zM313 610h-68v101h68v-101z" glyph-name="cdotaccent" horiz-adv-x="532" unicode="ċ"/><glyph d="M661 498h-68q-18 81 -78.5 127t-140.5 46q-68 0 -121 -27t-84.5 -72t-47.5 -99.5t-16 -115.5t16 -115.5t47.5 -99.5t84.5 -72t121 -27q96 0 157.5 65t71.5 164h68q-14 -133 -93 -210t-204 -77q-82 0 -147.5 30.5t-106 82.5t-62 118t-21.5 141t21.5 141t62 118t106 82.5 t147.5 30.5q108 0 190.5 -62t96.5 -169zM333 780l-114 141h65l86 -102l88 102h58l-114 -141h-69z" glyph-name="Ccaron" horiz-adv-x="702" unicode="Č"/><glyph d="M490 354h-63q-27 124 -146 124q-85 0 -133 -65.5t-48 -154.5t48 -154.5t133 -65.5q58 0 101 42t49 105h63q-13 -94 -69.5 -147t-143.5 -53q-114 0 -179 78.5t-65 194.5t65 194.5t179 78.5q86 0 142 -45t67 -132zM245 590l-114 141h65l86 -102l88 102h58l-114 -141h-69z" glyph-name="ccaron" horiz-adv-x="532" unicode="č"/><glyph d="M71 0v714h247q328 -8 328 -357t-328 -357h-247zM139 656v-598h145q155 0 224.5 70t69.5 229t-69.5 229t-224.5 70h-145zM269 780l-114 141h65l86 -102l88 102h58l-114 -141h-69z" glyph-name="Dcaron" horiz-adv-x="683" unicode="Ď"/><glyph d="M517 714v-714h-58v98h-2q-20 -50 -73 -81.5t-111 -31.5q-112 0 -172 78t-60 195t60 195t172 78q60 0 110 -30t69 -83h2v296h63zM104 258q0 -57 16.5 -105t56 -81.5t96.5 -33.5q92 0 136.5 64.5t44.5 155.5t-44.5 155.5t-136.5 64.5q-57 0 -96.5 -33.5t-56 -81.5 t-16.5 -105zM700 714l-86 -141h-47l55 141h78z" glyph-name="dcaron" horiz-adv-x="651" unicode="ď"/><glyph d="M71 393v321h247q328 -8 328 -357t-328 -357h-247v348h-72v45h72zM139 656v-263h236v-45h-236v-290h145q155 0 224.5 70t69.5 229t-69.5 229t-224.5 70h-145z" glyph-name="Dcroat" horiz-adv-x="683" unicode="Đ"/><glyph d="M517 584v-584h-58v98h-2q-20 -50 -73 -81.5t-111 -31.5q-112 0 -172 78t-60 195t60 195t172 78q60 0 110 -30t69 -83h2v166h-173v45h173v85h63v-85h84v-45h-84zM104 258q0 -57 16.5 -105t56 -81.5t96.5 -33.5q92 0 136.5 64.5t44.5 155.5t-44.5 155.5t-136.5 64.5 q-57 0 -96.5 -33.5t-56 -81.5t-16.5 -105z" glyph-name="dcroat" horiz-adv-x="604" unicode="đ"/><glyph d="M71 0v714h493v-58h-425v-258h398v-58h-398v-282h430v-58h-498zM484 828h-329v45h329v-45z" glyph-name="Emacron" horiz-adv-x="610" unicode="Ē"/><glyph d="M100 294h334q-2 75 -47 129.5t-117 54.5q-73 0 -117 -53.5t-53 -130.5zM497 241h-397q0 -79 43.5 -141t126.5 -62q129 0 162 132h63q-43 -185 -225 -185q-116 0 -174.5 77t-58.5 196q0 72 23 131.5t77.5 100.5t132.5 41q79 0 132.5 -43t75.5 -107t19 -140zM434 638h-329 v45h329v-45z" glyph-name="emacron" horiz-adv-x="535" unicode="ē"/><glyph d="M71 0v714h493v-58h-425v-258h398v-58h-398v-282h430v-58h-498zM173 914h39q2 -38 32.5 -60t70.5 -22t70 22t36 60h39q-8 -59 -46.5 -93t-98.5 -34q-61 0 -99 33.5t-43 93.5z" glyph-name="Ebreve" horiz-adv-x="610" unicode="Ĕ"/><glyph d="M100 294h334q-2 75 -47 129.5t-117 54.5q-73 0 -117 -53.5t-53 -130.5zM497 241h-397q0 -79 43.5 -141t126.5 -62q129 0 162 132h63q-43 -185 -225 -185q-116 0 -174.5 77t-58.5 196q0 72 23 131.5t77.5 100.5t132.5 41q79 0 132.5 -43t75.5 -107t19 -140zM131 724h39 q2 -38 32.5 -60t70.5 -22t70 22t36 60h39q-8 -59 -46.5 -93t-98.5 -34q-61 0 -99 33.5t-43 93.5z" glyph-name="ebreve" horiz-adv-x="535" unicode="ĕ"/><glyph d="M71 0v714h493v-58h-425v-258h398v-58h-398v-282h430v-58h-498zM352 800h-68v101h68v-101z" glyph-name="Edotaccent" horiz-adv-x="610" unicode="Ė"/><glyph d="M100 294h334q-2 75 -47 129.5t-117 54.5q-73 0 -117 -53.5t-53 -130.5zM497 241h-397q0 -79 43.5 -141t126.5 -62q129 0 162 132h63q-43 -185 -225 -185q-116 0 -174.5 77t-58.5 196q0 72 23 131.5t77.5 100.5t132.5 41q79 0 132.5 -43t75.5 -107t19 -140zM303 610h-68 v101h68v-101z" glyph-name="edotaccent" horiz-adv-x="535" unicode="ė"/><glyph d="M569 0h-46q-52 -43 -67 -67t-15 -50q0 -23 12.5 -35t31.5 -12q34 0 55 41l29 -13q-30 -67 -98 -67q-43 0 -67 22.5t-24 59.5q0 57 105 121h-414v714h493v-58h-425v-258h398v-58h-398v-282h430v-58z" glyph-name="Eogonek" horiz-adv-x="610" unicode="Ę"/><glyph d="M497 241h-397q0 -79 43.5 -141t126.5 -62q129 0 162 132h63q-19 -87 -74 -137q-43 -38 -117 -46q-11 -9 -28 -26q-24 -25 -30.5 -41t-6.5 -37q0 -23 12.5 -35t31.5 -12q34 0 55 41l29 -13q-30 -67 -98 -67q-43 0 -67 22.5t-24 59.5q0 35 45 78q12 12 36 28q-52 1 -95 22 q-64 32 -95.5 98t-31.5 153q0 72 23 131.5t77.5 100.5t132.5 41q79 0 132.5 -43t75.5 -107t19 -140zM100 294h334q-2 75 -47 129.5t-117 54.5q-73 0 -117 -53.5t-53 -130.5z" glyph-name="eogonek" horiz-adv-x="535" unicode="ę"/><glyph d="M71 0v714h493v-58h-425v-258h398v-58h-398v-282h430v-58h-498zM279 780l-114 141h65l86 -102l88 102h58l-114 -141h-69z" glyph-name="Ecaron" horiz-adv-x="610" unicode="Ě"/><glyph d="M100 294h334q-2 75 -47 129.5t-117 54.5q-73 0 -117 -53.5t-53 -130.5zM497 241h-397q0 -79 43.5 -141t126.5 -62q129 0 162 132h63q-43 -185 -225 -185q-116 0 -174.5 77t-58.5 196q0 72 23 131.5t77.5 100.5t132.5 41q79 0 132.5 -43t75.5 -107t19 -140zM237 590 l-114 141h65l86 -102l88 102h58l-114 -141h-69z" glyph-name="ecaron" horiz-adv-x="535" unicode="ě"/><glyph d="M681 363v-363h-49l-9 130h-2q-34 -73 -99.5 -109t-147.5 -36t-147.5 30.5t-106 82.5t-62 118t-21.5 141t21.5 141t62 118t106 82.5t147.5 30.5q116 0 197 -61.5t101 -175.5h-68q-7 67 -71 123t-159 56q-68 0 -121 -27t-84.5 -72t-47.5 -99.5t-16 -115.5t16 -115.5 t47.5 -99.5t84.5 -72t121 -27q116 0 182.5 73t64.5 189h-243v58h303zM407 920l114 -141h-65l-86 102l-88 -102h-58l114 141h69z" glyph-name="Gcircumflex" horiz-adv-x="739" unicode="Ĝ"/><glyph d="M499 516v-474q0 -121 -54 -184.5t-175 -63.5q-85 0 -146.5 39.5t-67.5 116.5h63q9 -53 51 -78t100 -25q86 0 126 49t40 146v70h-2q-22 -49 -65.5 -77.5t-98.5 -28.5q-118 0 -175.5 73t-57.5 192q0 111 62.5 185.5t170.5 74.5q55 0 99.5 -29.5t64.5 -74.5h2v89h63zM270 59 q78 0 122 60.5t44 144.5q0 86 -41.5 150t-124.5 64q-84 0 -127 -62.5t-43 -151.5q0 -85 43.5 -145t126.5 -60zM328 730l114 -141h-65l-86 102l-88 -102h-58l114 141h69z" glyph-name="gcircumflex" horiz-adv-x="562" unicode="ĝ"/><glyph d="M681 363v-363h-49l-9 130h-2q-34 -73 -99.5 -109t-147.5 -36t-147.5 30.5t-106 82.5t-62 118t-21.5 141t21.5 141t62 118t106 82.5t147.5 30.5q116 0 197 -61.5t101 -175.5h-68q-7 67 -71 123t-159 56q-68 0 -121 -27t-84.5 -72t-47.5 -99.5t-16 -115.5t16 -115.5 t47.5 -99.5t84.5 -72t121 -27q116 0 182.5 73t64.5 189h-243v58h303zM230 914h39q2 -38 32.5 -60t70.5 -22t70 22t36 60h39q-8 -59 -46.5 -93t-98.5 -34q-61 0 -99 33.5t-43 93.5z" glyph-name="Gbreve" horiz-adv-x="739" unicode="Ğ"/><glyph d="M499 516v-474q0 -121 -54 -184.5t-175 -63.5q-85 0 -146.5 39.5t-67.5 116.5h63q9 -53 51 -78t100 -25q86 0 126 49t40 146v70h-2q-22 -49 -65.5 -77.5t-98.5 -28.5q-118 0 -175.5 73t-57.5 192q0 111 62.5 185.5t170.5 74.5q55 0 99.5 -29.5t64.5 -74.5h2v89h63zM270 59 q78 0 122 60.5t44 144.5q0 86 -41.5 150t-124.5 64q-84 0 -127 -62.5t-43 -151.5q0 -85 43.5 -145t126.5 -60zM128 724h39q2 -38 32.5 -60t70.5 -22t70 22t36 60h39q-8 -59 -46.5 -93t-98.5 -34q-61 0 -99 33.5t-43 93.5z" glyph-name="gbreve" horiz-adv-x="562" unicode="ğ"/><glyph d="M681 363v-363h-49l-9 130h-2q-34 -73 -99.5 -109t-147.5 -36t-147.5 30.5t-106 82.5t-62 118t-21.5 141t21.5 141t62 118t106 82.5t147.5 30.5q116 0 197 -61.5t101 -175.5h-68q-7 67 -71 123t-159 56q-68 0 -121 -27t-84.5 -72t-47.5 -99.5t-16 -115.5t16 -115.5 t47.5 -99.5t84.5 -72t121 -27q116 0 182.5 73t64.5 189h-243v58h303zM409 800h-68v101h68v-101z" glyph-name="Gdotaccent" horiz-adv-x="739" unicode="Ġ"/><glyph d="M499 516v-474q0 -121 -54 -184.5t-175 -63.5q-85 0 -146.5 39.5t-67.5 116.5h63q9 -53 51 -78t100 -25q86 0 126 49t40 146v70h-2q-22 -49 -65.5 -77.5t-98.5 -28.5q-118 0 -175.5 73t-57.5 192q0 111 62.5 185.5t170.5 74.5q55 0 99.5 -29.5t64.5 -74.5h2v89h63zM270 59 q78 0 122 60.5t44 144.5q0 86 -41.5 150t-124.5 64q-84 0 -127 -62.5t-43 -151.5q0 -85 43.5 -145t126.5 -60zM314 610h-68v101h68v-101z" glyph-name="gdotaccent" horiz-adv-x="562" unicode="ġ"/><glyph d="M681 363v-363h-49l-9 130h-2q-34 -73 -99.5 -109t-147.5 -36t-147.5 30.5t-106 82.5t-62 118t-21.5 141t21.5 141t62 118t106 82.5t147.5 30.5q116 0 197 -61.5t101 -175.5h-68q-7 67 -71 123t-159 56q-68 0 -121 -27t-84.5 -72t-47.5 -99.5t-16 -115.5t16 -115.5 t47.5 -99.5t84.5 -72t121 -27q116 0 182.5 73t64.5 189h-243v58h303zM330 -50h86v-80q0 -69 -86 -73v28q36 7 39 34h-39v91z" glyph-name="Gcommaaccent" horiz-adv-x="739" unicode="Ģ"/><glyph d="M499 516v-474q0 -121 -54 -184.5t-175 -63.5q-85 0 -146.5 39.5t-67.5 116.5h63q9 -53 51 -78t100 -25q86 0 126 49t40 146v70h-2q-22 -49 -65.5 -77.5t-98.5 -28.5q-118 0 -175.5 73t-57.5 192q0 111 62.5 185.5t170.5 74.5q55 0 99.5 -29.5t64.5 -74.5h2v89h63zM270 59 q78 0 122 60.5t44 144.5q0 86 -41.5 150t-124.5 64q-84 0 -127 -62.5t-43 -151.5q0 -85 43.5 -145t126.5 -60zM325 623h-86v80q0 69 86 73v-28q-36 -7 -39 -34h39v-91z" glyph-name="gcommaaccent" horiz-adv-x="562" unicode="ģ"/><glyph d="M71 0v714h68v-310h424v310h68v-714h-68v346h-424v-346h-68zM387 920l114 -141h-65l-86 102l-88 -102h-58l114 141h69z" glyph-name="Hcircumflex" horiz-adv-x="702" unicode="Ĥ"/><glyph d="M62 0v714h63v-287h2q18 46 64 75t101 29q104 0 146.5 -50.5t42.5 -148.5v-332h-63v322q0 156 -131 156q-74 0 -117 -49.5t-45 -127.5v-301h-63zM303 920l114 -141h-65l-86 102l-88 -102h-58l114 141h69z" glyph-name="hcircumflex" horiz-adv-x="543" unicode="ĥ"/><glyph d="M71 0v714h68v-198h424v198h68v-714h-68v336h-424v-336h-68zM563 471h-424v-77h424v77z" glyph-name="Hbar" horiz-adv-x="702" unicode="Ħ"/><glyph d="M85 629v85h63v-85h153v-45h-153v-157h2q18 46 64 75t101 29q104 0 146.5 -50.5t42.5 -148.5v-332h-63v322q0 156 -131 156q-74 0 -117 -49.5t-45 -127.5v-301h-63v584h-82v45h82z" glyph-name="hbar" horiz-adv-x="566" unicode="ħ"/><glyph d="M76 0v714h68v-714h-68zM229 900h38q-7 -39 -28.5 -67t-58.5 -28q-30 0 -75 23t-63 23q-38 0 -50 -51h-39q4 38 28 67t61 29q31 0 75 -22t60 -22q38 0 52 48z" glyph-name="Itilde" horiz-adv-x="220" unicode="Ĩ"/><glyph d="M127 0h-63v516h63v-516zM215 710h38q-7 -39 -28.5 -67t-58.5 -28q-30 0 -75 23t-63 23q-38 0 -50 -51h-39q4 38 28 67t61 29q31 0 75 -22t60 -22q38 0 52 48z" glyph-name="itilde" horiz-adv-x="191" unicode="ĩ"/><glyph d="M76 0v714h68v-714h-68zM275 828h-329v45h329v-45z" glyph-name="Imacron" horiz-adv-x="220" unicode="Ī"/><glyph d="M127 0h-63v516h63v-516zM261 638h-329v45h329v-45z" glyph-name="imacron" horiz-adv-x="191" unicode="ī"/><glyph d="M144 714v-714q-47 -44 -60.5 -67.5t-13.5 -49.5q0 -23 11.5 -35t28.5 -12q31 0 49 41l27 -13q-28 -67 -89 -67q-39 0 -60.5 22.5t-21.5 59.5q0 58 95 121h-34v714h68z" glyph-name="Iogonek" horiz-adv-x="220" unicode="Į"/><glyph d="M127 516v-516q-47 -43 -60.5 -67t-13.5 -50q0 -23 12 -35t28 -12q31 0 49 41l26 -13q-26 -67 -88 -67q-38 0 -60 22.5t-22 59.5q0 56 95 121h-29v516h63zM64 613v101h63v-101h-63z" glyph-name="iogonek" horiz-adv-x="191" unicode="į"/><glyph d="M76 0v714h68v-714h-68zM144 800h-68v101h68v-101z" glyph-name="Idotaccent" horiz-adv-x="220" unicode="İ"/><glyph d="M130 0h-63v516h63v-516z" glyph-name="dotlessi" unicode="ı"/><glyph d="M359 228v486h68v-515q0 -111 -47.5 -162.5t-160.5 -51.5q-199 0 -199 244h68q0 -3 0.5 -19.5t1 -23.5t2.5 -24t5 -25.5t8 -23t11.5 -22.5t17 -19t23.5 -16t30 -9t38 -4q78 0 106 41.5t28 143.5zM424 920l114 -141h-65l-86 102l-88 -102h-58l114 141h69z" glyph-name="Jcircumflex" horiz-adv-x="498" unicode="Ĵ"/><glyph d="M64 -63v579h63v-564q0 -143 -110 -143q-7 0 -22 1t-22 1v52q23 -2 34 -1q34 0 45.5 19t11.5 56zM128 730l114 -141h-65l-86 102l-88 -102h-58l114 141h69z" glyph-name="jcircumflex" horiz-adv-x="191" unicode="ĵ"/><glyph d="M71 0v714h68v-384l415 384h92l-319 -295l334 -419h-88l-297 372l-137 -127v-245h-68zM290 -50h86v-80q0 -69 -86 -73v28q36 7 39 34h-39v91z" glyph-name="Kcommaaccent" horiz-adv-x="657" unicode="Ķ"/><glyph d="M63 0v714h63v-448l286 250h84l-220 -191l235 -325h-79l-204 281l-102 -85v-196h-63zM224 -50h86v-80q0 -69 -86 -73v28q36 7 39 34h-39v91z" glyph-name="kcommaaccent" horiz-adv-x="506" unicode="ķ"/><glyph d="M71 0v714h68v-656h400v-58h-468zM261 921l-132 -141h-51l105 141h78z" glyph-name="Lacute" horiz-adv-x="565" unicode="Ĺ"/><glyph d="M64 0v714h63v-714h-63zM247 921l-132 -141h-51l105 141h78z" glyph-name="lacute" horiz-adv-x="191" unicode="ĺ"/><glyph d="M71 0v714h68v-656h400v-58h-468zM249 -50h86v-80q0 -69 -86 -73v28q36 7 39 34h-39v91z" glyph-name="Lcommaaccent" horiz-adv-x="565" unicode="Ļ"/><glyph d="M64 0v714h63v-714h-63zM53 -50h86v-80q0 -69 -86 -73v28q36 7 39 34h-39v91z" glyph-name="lcommaaccent" horiz-adv-x="191" unicode="ļ"/><glyph d="M71 0v714h68v-656h400v-58h-468zM377 714l-86 -141h-47l55 141h78z" glyph-name="Lcaron" horiz-adv-x="565" unicode="Ľ"/><glyph d="M64 0v714h63v-714h-63zM310 714l-86 -141h-47l55 141h78z" glyph-name="lcaron" horiz-adv-x="261" unicode="ľ"/><glyph d="M71 0v714h68v-656h400v-58h-468zM355 415h-68v101h68v-101z" glyph-name="Ldot" horiz-adv-x="565" unicode="Ŀ"/><glyph d="M64 0v714h63v-714h-63zM259 415h-68v101h68v-101z" glyph-name="ldot" horiz-adv-x="292" unicode="ŀ"/><glyph d="M71 306v408h68v-361l243 168v-56l-243 -167v-240h400v-58h-468v251l-82 -57v56z" glyph-name="Lslash" horiz-adv-x="565" unicode="Ł"/><glyph d="M67 395v319h63v-267l67 55v-55l-67 -55v-392h-63v340l-67 -55v55z" glyph-name="lslash" unicode="ł"/><glyph d="M70 0v714h76l416 -604h2v604h68v-714h-76l-416 604h-2v-604h-68zM496 921l-132 -141h-51l105 141h78z" glyph-name="Nacute" horiz-adv-x="702" unicode="Ń"/><glyph d="M62 0v516h63v-89h2q18 46 64 75t101 29q104 0 146.5 -50.5t42.5 -148.5v-332h-63v322q0 156 -131 156q-74 0 -117 -49.5t-45 -127.5v-301h-63zM422 731l-132 -141h-51l105 141h78z" glyph-name="nacute" horiz-adv-x="543" unicode="ń"/><glyph d="M70 0v714h76l416 -604h2v604h68v-714h-76l-416 604h-2v-604h-68zM302 -50h86v-80q0 -69 -86 -73v28q36 7 39 34h-39v91z" glyph-name="Ncommaaccent" horiz-adv-x="702" unicode="Ņ"/><glyph d="M62 0v516h63v-89h2q18 46 64 75t101 29q104 0 146.5 -50.5t42.5 -148.5v-332h-63v322q0 156 -131 156q-74 0 -117 -49.5t-45 -127.5v-301h-63zM234 -50h86v-80q0 -69 -86 -73v28q36 7 39 34h-39v91z" glyph-name="ncommaaccent" horiz-adv-x="543" unicode="ņ"/><glyph d="M70 0v714h76l416 -604h2v604h68v-714h-76l-416 604h-2v-604h-68zM310 780l-114 141h65l86 -102l88 102h58l-114 -141h-69z" glyph-name="Ncaron" horiz-adv-x="702" unicode="Ň"/><glyph d="M62 0v516h63v-89h2q18 46 64 75t101 29q104 0 146.5 -50.5t42.5 -148.5v-332h-63v322q0 156 -131 156q-74 0 -117 -49.5t-45 -127.5v-301h-63zM236 590l-114 141h65l86 -102l88 102h58l-114 -141h-69z" glyph-name="ncaron" horiz-adv-x="543" unicode="ň"/><glyph d="M101 357q0 -61 16 -115.5t47.5 -99.5t84.5 -72t121 -27t121 27t84 72t47 99.5t16 115.5t-16 115.5t-47 99.5t-84 72t-121 27t-121 -27t-84.5 -72t-47.5 -99.5t-16 -115.5zM33 357q0 75 21.5 141t62 118t106 82.5t147.5 30.5q108 0 185.5 -53t114 -135.5t36.5 -183.5 t-36.5 -183.5t-114 -135.5t-185.5 -53q-82 0 -147.5 30.5t-106 82.5t-62 118t-21.5 141zM536 828h-329v45h329v-45z" glyph-name="Omacron" horiz-adv-x="739" unicode="Ō"/><glyph d="M281 478q-85 0 -133 -65.5t-48 -154.5t48 -154.5t133 -65.5t133 65.5t48 154.5t-48 154.5t-133 65.5zM281 531q114 0 179 -78.5t65 -194.5t-65 -194.5t-179 -78.5t-179 78.5t-65 194.5t65 194.5t179 78.5zM450 638h-329v45h329v-45z" glyph-name="omacron" horiz-adv-x="562" unicode="ō"/><glyph d="M101 357q0 -61 16 -115.5t47.5 -99.5t84.5 -72t121 -27t121 27t84 72t47 99.5t16 115.5t-16 115.5t-47 99.5t-84 72t-121 27t-121 -27t-84.5 -72t-47.5 -99.5t-16 -115.5zM33 357q0 75 21.5 141t62 118t106 82.5t147.5 30.5q108 0 185.5 -53t114 -135.5t36.5 -183.5 t-36.5 -183.5t-114 -135.5t-185.5 -53q-82 0 -147.5 30.5t-106 82.5t-62 118t-21.5 141zM228 914h39q2 -38 32.5 -60t70.5 -22t70 22t36 60h39q-8 -59 -46.5 -93t-98.5 -34q-61 0 -99 33.5t-43 93.5z" glyph-name="Obreve" horiz-adv-x="739" unicode="Ŏ"/><glyph d="M281 478q-85 0 -133 -65.5t-48 -154.5t48 -154.5t133 -65.5t133 65.5t48 154.5t-48 154.5t-133 65.5zM281 531q114 0 179 -78.5t65 -194.5t-65 -194.5t-179 -78.5t-179 78.5t-65 194.5t65 194.5t179 78.5zM141 724h39q2 -38 32.5 -60t70.5 -22t70 22t36 60h39 q-8 -59 -46.5 -93t-98.5 -34q-61 0 -99 33.5t-43 93.5z" glyph-name="obreve" horiz-adv-x="562" unicode="ŏ"/><glyph d="M101 357q0 -61 16 -115.5t47.5 -99.5t84.5 -72t121 -27t121 27t84 72t47 99.5t16 115.5t-16 115.5t-47 99.5t-84 72t-121 27t-121 -27t-84.5 -72t-47.5 -99.5t-16 -115.5zM33 357q0 75 21.5 141t62 118t106 82.5t147.5 30.5q108 0 185.5 -53t114 -135.5t36.5 -183.5 t-36.5 -183.5t-114 -135.5t-185.5 -53q-82 0 -147.5 30.5t-106 82.5t-62 118t-21.5 141zM469 780h-51l101 141h76zM313 780h-51l101 141h76z" glyph-name="Ohungarumlaut" horiz-adv-x="739" unicode="Ő"/><glyph d="M281 478q-85 0 -133 -65.5t-48 -154.5t48 -154.5t133 -65.5t133 65.5t48 154.5t-48 154.5t-133 65.5zM281 531q114 0 179 -78.5t65 -194.5t-65 -194.5t-179 -78.5t-179 78.5t-65 194.5t65 194.5t179 78.5zM381 590h-51l101 141h76zM225 590h-51l101 141h76z" glyph-name="ohungarumlaut" horiz-adv-x="562" unicode="ő"/><glyph d="M636 656v-258h368v-58h-368v-282h409v-58h-477v70q-35 -41 -87.5 -63t-106.5 -22q-154 0 -246 108t-92 264t92 264t246 108q127 0 194 -74v59h474v-58h-406zM568 177v332q0 46 -5 66q-17 43 -75 69.5t-114 26.5q-125 0 -197.5 -91t-72.5 -223t72.5 -223t197.5 -91 q114 0 176 79q16 20 18 55z" glyph-name="OE" horiz-adv-x="1072" unicode="Œ"/><glyph d="M482 294h321q0 77 -42.5 130.5t-117.5 53.5q-77 0 -119 -53t-42 -131zM802 166h63q-21 -87 -80 -134t-148 -47q-66 0 -117.5 34.5t-66.5 96.5h-2q-18 -64 -67 -97.5t-118 -33.5q-115 0 -171 77.5t-56 195.5q0 115 59.5 194t170.5 79q68 0 116 -31.5t68 -95.5h2 q21 58 71.5 92.5t118.5 34.5q113 0 167 -72.5t54 -217.5h-384q0 -83 41 -143t120 -60q122 0 159 128zM268 478q-62 0 -101 -37t-52 -86t-13 -109q0 -86 41 -147t124 -61q152 0 152 224q0 216 -151 216z" glyph-name="oe" horiz-adv-x="895" unicode="œ"/><glyph d="M139 656v-281h254q65 0 109.5 38t44.5 101q0 67 -39 104.5t-115 37.5h-254zM71 0v714h327q94 0 155.5 -47t61.5 -139q0 -70 -36 -119t-103 -63v-2q66 -9 93.5 -49.5t31.5 -111.5q0 -3 1.5 -33t3 -44t4.5 -39t9 -41t15 -26h-75q-6 9 -9.5 25t-5 28.5t-2.5 32t-2 25.5 q-2 38 -4.5 61.5t-11 55t-23 49t-41 29.5t-63.5 11h-258v-317h-68zM467 921l-132 -141h-51l105 141h78z" glyph-name="Racute" horiz-adv-x="665" unicode="Ŕ"/><glyph d="M63 0v516h58v-121h2q24 64 75 97.5t120 30.5v-63q-84 4 -138 -49.5t-54 -135.5v-275h-63zM252 731l-132 -141h-51l105 141h78z" glyph-name="racute" horiz-adv-x="321" unicode="ŕ"/><glyph d="M139 656v-281h254q65 0 109.5 38t44.5 101q0 67 -39 104.5t-115 37.5h-254zM71 0v714h327q94 0 155.5 -47t61.5 -139q0 -70 -36 -119t-103 -63v-2q66 -9 93.5 -49.5t31.5 -111.5q0 -3 1.5 -33t3 -44t4.5 -39t9 -41t15 -26h-75q-6 9 -9.5 25t-5 28.5t-2.5 32t-2 25.5 q-2 38 -4.5 61.5t-11 55t-23 49t-41 29.5t-63.5 11h-258v-317h-68zM293 -50h86v-80q0 -69 -86 -73v28q36 7 39 34h-39v91z" glyph-name="Rcommaaccent" horiz-adv-x="665" unicode="Ŗ"/><glyph d="M63 0v516h58v-121h2q24 64 75 97.5t120 30.5v-63q-84 4 -138 -49.5t-54 -135.5v-275h-63zM53 -50h86v-80q0 -69 -86 -73v28q36 7 39 34h-39v91z" glyph-name="rcommaaccent" horiz-adv-x="321" unicode="ŗ"/><glyph d="M139 656v-281h254q65 0 109.5 38t44.5 101q0 67 -39 104.5t-115 37.5h-254zM71 0v714h327q94 0 155.5 -47t61.5 -139q0 -70 -36 -119t-103 -63v-2q66 -9 93.5 -49.5t31.5 -111.5q0 -3 1.5 -33t3 -44t4.5 -39t9 -41t15 -26h-75q-6 9 -9.5 25t-5 28.5t-2.5 32t-2 25.5 q-2 38 -4.5 61.5t-11 55t-23 49t-41 29.5t-63.5 11h-258v-317h-68zM274 780l-114 141h65l86 -102l88 102h58l-114 -141h-69z" glyph-name="Rcaron" horiz-adv-x="665" unicode="Ř"/><glyph d="M63 0v516h58v-121h2q24 64 75 97.5t120 30.5v-63q-84 4 -138 -49.5t-54 -135.5v-275h-63zM153 590l-114 141h65l86 -102l88 102h58l-114 -141h-69z" glyph-name="rcaron" horiz-adv-x="321" unicode="ř"/><glyph d="M35 235h68q-4 -192 233 -192q41 0 82.5 13.5t74 48.5t32.5 83q0 94 -147 129l-159 39q-74 19 -117.5 57t-43.5 115q0 30 11 61.5t36 64.5t76.5 54t122.5 21q113 0 188.5 -58t75.5 -164h-68q-4 78 -59.5 121t-135.5 43q-78 0 -128.5 -34t-50.5 -108q0 -85 108 -109 l174 -43q87 -23 136 -65.5t49 -122.5q0 -20 -3.5 -40.5t-20 -52t-43.5 -54.5t-80.5 -40t-125.5 -17q-134 0 -212.5 62.5t-72.5 187.5zM459 921l-132 -141h-51l105 141h78z" glyph-name="Sacute" horiz-adv-x="628" unicode="Ś"/><glyph d="M435 365h-63q-2 56 -40 84.5t-95 28.5q-49 0 -85.5 -21.5t-36.5 -67.5q0 -60 107 -87l84 -19q62 -9 104.5 -45t42.5 -98q0 -77 -62.5 -116t-144.5 -39q-196 0 -212 182h63q4 -62 45.5 -95.5t106.5 -33.5q54 0 97.5 24.5t43.5 73.5q0 41 -30 61t-83 33l-81 18 q-71 18 -107.5 48t-36.5 90q0 73 58 109t136 36q81 0 133 -42.5t56 -123.5zM397 731l-132 -141h-51l105 141h78z" glyph-name="sacute" horiz-adv-x="487" unicode="ś"/><glyph d="M35 235h68q-4 -192 233 -192q41 0 82.5 13.5t74 48.5t32.5 83q0 94 -147 129l-159 39q-74 19 -117.5 57t-43.5 115q0 30 11 61.5t36 64.5t76.5 54t122.5 21q113 0 188.5 -58t75.5 -164h-68q-4 78 -59.5 121t-135.5 43q-78 0 -128.5 -34t-50.5 -108q0 -85 108 -109 l174 -43q87 -23 136 -65.5t49 -122.5q0 -20 -3.5 -40.5t-20 -52t-43.5 -54.5t-80.5 -40t-125.5 -17q-134 0 -212.5 62.5t-72.5 187.5zM351 920l114 -141h-65l-86 102l-88 -102h-58l114 141h69z" glyph-name="Scircumflex" horiz-adv-x="628" unicode="Ŝ"/><glyph d="M435 365h-63q-2 56 -40 84.5t-95 28.5q-49 0 -85.5 -21.5t-36.5 -67.5q0 -60 107 -87l84 -19q62 -9 104.5 -45t42.5 -98q0 -77 -62.5 -116t-144.5 -39q-196 0 -212 182h63q4 -62 45.5 -95.5t106.5 -33.5q54 0 97.5 24.5t43.5 73.5q0 41 -30 61t-83 33l-81 18 q-71 18 -107.5 48t-36.5 90q0 73 58 109t136 36q81 0 133 -42.5t56 -123.5zM283 730l114 -141h-65l-86 102l-88 -102h-58l114 141h69z" glyph-name="scircumflex" horiz-adv-x="487" unicode="ŝ"/><glyph d="M35 235h68q-4 -192 233 -192q41 0 82.5 13.5t74 48.5t32.5 83q0 94 -147 129l-159 39q-74 19 -117.5 57t-43.5 115q0 30 11 61.5t36 64.5t76.5 54t122.5 21q113 0 188.5 -58t75.5 -164h-68q-4 78 -59.5 121t-135.5 43q-78 0 -128.5 -34t-50.5 -108q0 -85 108 -109 l174 -43q87 -23 136 -65.5t49 -122.5q0 -21 -5 -43t-20 -53.5t-51 -57t-89 -38.5q-44 -11 -105 -12l-32 -39q22 5 50 3q66 -11 66 -66q0 -42 -33.5 -64t-76.5 -22q-53 0 -94 21l14 32q34 -14 79 -14q53 0 53 43q0 17 -12.5 27.5t-30.5 10.5q-33 0 -51 -8l-16 15l49 62 q-42 3 -85 14q-82 21 -127 80.5t-41 154.5z" glyph-name="Scedilla" horiz-adv-x="628" unicode="Ş"/><glyph d="M435 365h-63q-2 56 -40 84.5t-95 28.5q-49 0 -85.5 -21.5t-36.5 -67.5q0 -60 107 -87l84 -19q62 -9 104.5 -45t42.5 -98q0 -59 -38 -96.5t-96 -49.5q-33 -8 -64 -9l-32 -39q22 5 50 3q66 -11 66 -66q0 -42 -33.5 -64t-76.5 -22q-53 0 -94 21l14 32q34 -14 79 -14 q53 0 53 43q0 17 -12.5 27.5t-30.5 10.5q-33 0 -51 -8l-16 15l49 62q-72 4 -122 42q-56 44 -64 139h63q4 -62 45.5 -95.5t106.5 -33.5q54 0 97.5 24.5t43.5 73.5q0 41 -30 61t-83 33l-81 18q-71 18 -107.5 48t-36.5 90q0 73 58 109t136 36q81 0 133 -42.5t56 -123.5z" glyph-name="scedilla" horiz-adv-x="487" unicode="ş"/><glyph d="M35 235h68q-4 -192 233 -192q41 0 82.5 13.5t74 48.5t32.5 83q0 94 -147 129l-159 39q-74 19 -117.5 57t-43.5 115q0 30 11 61.5t36 64.5t76.5 54t122.5 21q113 0 188.5 -58t75.5 -164h-68q-4 78 -59.5 121t-135.5 43q-78 0 -128.5 -34t-50.5 -108q0 -85 108 -109 l174 -43q87 -23 136 -65.5t49 -122.5q0 -20 -3.5 -40.5t-20 -52t-43.5 -54.5t-80.5 -40t-125.5 -17q-134 0 -212.5 62.5t-72.5 187.5zM280 780l-114 141h65l86 -102l88 102h58l-114 -141h-69z" glyph-name="Scaron" horiz-adv-x="628" unicode="Š"/><glyph d="M438 365h-63q-2 56 -40 84.5t-95 28.5q-49 0 -85.5 -21.5t-36.5 -67.5q0 -60 107 -87l84 -19q62 -9 104.5 -45t42.5 -98q0 -77 -62.5 -116t-144.5 -39q-196 0 -212 182h63q4 -62 45.5 -95.5t106.5 -33.5q54 0 97.5 24.5t43.5 73.5q0 41 -30 61t-83 33l-81 18 q-71 18 -107.5 48t-36.5 90q0 73 58 109t136 36q81 0 133 -42.5t56 -123.5zM217 590l-114 141h65l86 -102l88 102h58l-114 -141h-69z" glyph-name="scaron" horiz-adv-x="493" unicode="š"/><glyph d="M26 656v58h566v-58h-249v-656h-68v656h-249zM266 -50h86v-80q0 -69 -86 -73v28q36 7 39 34h-39v91z" glyph-name="Tcommaaccent" horiz-adv-x="618" unicode="Ţ"/><glyph d="M163 671v-155h105v-53h-105v-348q0 -34 10 -50t41 -18q27 0 54 3v-54q-10 0 -28 -1t-28 -1q-63 0 -88 25t-24 91v353h-90v53h90v155h63zM139 -50h86v-80q0 -69 -86 -73v28q36 7 39 34h-39v91z" glyph-name="tcommaaccent" horiz-adv-x="302" unicode="ţ"/><glyph d="M26 656v58h566v-58h-249v-656h-68v656h-249zM276 780l-114 141h65l86 -102l88 102h58l-114 -141h-69z" glyph-name="Tcaron" horiz-adv-x="618" unicode="Ť"/><glyph d="M387 714l-86 -141h-47l55 141h78zM163 671v-155h105v-53h-105v-348q0 -34 10 -50t41 -18q27 0 54 3v-54q-10 0 -28 -1t-28 -1q-63 0 -88 25t-24 91v353h-90v53h90v155h63z" glyph-name="tcaron" horiz-adv-x="338" unicode="ť"/><glyph d="M26 656v58h566v-58h-249v-170h165v-45h-165v-441h-68v441h-164v45h164v170h-249z" glyph-name="Tbar" horiz-adv-x="618" unicode="Ŧ"/><glyph d="M163 671v-155h105v-53h-105v-99h117v-45h-117v-204q0 -34 10 -50t41 -18q27 0 54 3v-54q-10 0 -28 -1t-28 -1q-63 0 -88 25t-24 91v209h-100v45h100v99h-90v53h90v155h63z" glyph-name="tbar" horiz-adv-x="302" unicode="ŧ"/><glyph d="M64 257v457h68v-442q0 -120 53 -174.5t156 -54.5t156.5 54.5t53.5 174.5v442h68v-457q0 -120 -68.5 -196t-209.5 -76q-140 0 -208.5 76.5t-68.5 195.5zM460 900h38q-7 -39 -28.5 -67t-58.5 -28q-29 0 -75 23t-63 23q-38 0 -50 -51h-39q4 38 28 67t61 29q31 0 75 -22 t60 -22q38 0 52 48z" glyph-name="Utilde" horiz-adv-x="683" unicode="Ũ"/><glyph d="M481 516v-516h-58v93h-2q-24 -51 -72 -79.5t-106 -28.5q-181 0 -181 196v335h63v-336q2 -72 33.5 -107t104.5 -35q76 0 115.5 60.5t39.5 146.5v271h63zM391 710h38q-7 -39 -28.5 -67t-58.5 -28q-30 0 -75 23t-63 23q-38 0 -50 -51h-39q4 38 28 67t61 29q31 0 75 -22 t60 -22q38 0 52 48z" glyph-name="utilde" horiz-adv-x="543" unicode="ũ"/><glyph d="M64 257v457h68v-442q0 -120 53 -174.5t156 -54.5t156.5 54.5t53.5 174.5v442h68v-457q0 -120 -68.5 -196t-209.5 -76q-140 0 -208.5 76.5t-68.5 195.5zM504 828h-329v45h329v-45z" glyph-name="Umacron" horiz-adv-x="683" unicode="Ū"/><glyph d="M481 516v-516h-58v93h-2q-24 -51 -72 -79.5t-106 -28.5q-181 0 -181 196v335h63v-336q2 -72 33.5 -107t104.5 -35q76 0 115.5 60.5t39.5 146.5v271h63zM438 638h-329v45h329v-45z" glyph-name="umacron" horiz-adv-x="543" unicode="ū"/><glyph d="M64 257v457h68v-442q0 -120 53 -174.5t156 -54.5t156.5 54.5t53.5 174.5v442h68v-457q0 -120 -68.5 -196t-209.5 -76q-140 0 -208.5 76.5t-68.5 195.5zM196 914h39q2 -38 32.5 -60t70.5 -22t70 22t36 60h39q-8 -59 -46.5 -93t-98.5 -34q-61 0 -99 33.5t-43 93.5z" glyph-name="Ubreve" horiz-adv-x="683" unicode="Ŭ"/><glyph d="M481 516v-516h-58v93h-2q-24 -51 -72 -79.5t-106 -28.5q-181 0 -181 196v335h63v-336q2 -72 33.5 -107t104.5 -35q76 0 115.5 60.5t39.5 146.5v271h63zM131 724h39q2 -38 32.5 -60t70.5 -22t70 22t36 60h39q-8 -59 -46.5 -93t-98.5 -34q-61 0 -99 33.5t-43 93.5z" glyph-name="ubreve" horiz-adv-x="543" unicode="ŭ"/><glyph d="M64 257v457h68v-442q0 -120 53 -174.5t156 -54.5t156.5 54.5t53.5 174.5v442h68v-457q0 -120 -68.5 -196t-209.5 -76q-140 0 -208.5 76.5t-68.5 195.5zM271 860q0 -29 19.5 -48.5t48.5 -19.5t48.5 19.5t19.5 48.5t-19.5 48.5t-48.5 19.5t-48.5 -19.5t-19.5 -48.5z M232 860q0 44 31.5 75.5t75.5 31.5t75.5 -31.5t31.5 -75.5t-31.5 -75.5t-75.5 -31.5t-75.5 31.5t-31.5 75.5z" glyph-name="Uring" horiz-adv-x="683" unicode="Ů"/><glyph d="M481 516v-516h-58v93h-2q-24 -51 -72 -79.5t-106 -28.5q-181 0 -181 196v335h63v-336q2 -72 33.5 -107t104.5 -35q76 0 115.5 60.5t39.5 146.5v271h63zM205 680q0 -29 19.5 -48.5t48.5 -19.5t48.5 19.5t19.5 48.5t-19.5 48.5t-48.5 19.5t-48.5 -19.5t-19.5 -48.5z M166 680q0 44 31.5 75.5t75.5 31.5t75.5 -31.5t31.5 -75.5t-31.5 -75.5t-75.5 -31.5t-75.5 31.5t-31.5 75.5z" glyph-name="uring" horiz-adv-x="543" unicode="ů"/><glyph d="M64 257v457h68v-442q0 -120 53 -174.5t156 -54.5t156.5 54.5t53.5 174.5v442h68v-457q0 -120 -68.5 -196t-209.5 -76q-140 0 -208.5 76.5t-68.5 195.5zM437 780h-51l101 141h76zM281 780h-51l101 141h76z" glyph-name="Uhungarumlaut" horiz-adv-x="683" unicode="Ű"/><glyph d="M481 516v-516h-58v93h-2q-24 -51 -72 -79.5t-106 -28.5q-181 0 -181 196v335h63v-336q2 -72 33.5 -107t104.5 -35q76 0 115.5 60.5t39.5 146.5v271h63zM373 590h-51l101 141h76zM217 590h-51l101 141h76z" glyph-name="uhungarumlaut" horiz-adv-x="543" unicode="ű"/><glyph d="M64 257v457h68v-442q0 -120 53 -174.5t156 -54.5t156.5 54.5t53.5 174.5v442h68v-457q0 -187 -151 -250q-40 -16 -97 -21q-5 -4 -14 -12.5t-13 -12.5q-24 -25 -30.5 -41t-6.5 -37q0 -23 12.5 -35t31.5 -12q34 0 55 41l29 -13q-30 -67 -98 -67q-43 0 -67 22.5t-24 59.5 q0 35 45 78q12 12 36 28q-62 1 -113 22q-150 63 -150 250z" glyph-name="Uogonek" horiz-adv-x="683" unicode="Ų"/><glyph d="M481 0h-20q-52 -43 -67 -67t-15 -50q0 -23 12.5 -35t31.5 -12q34 0 55 41l29 -13q-30 -67 -98 -67q-43 0 -67 22.5t-24 59.5q0 57 105 121v93h-2q-24 -51 -72 -79.5t-106 -28.5q-181 0 -181 196v335h63v-336q2 -72 33.5 -107t104.5 -35q76 0 115.5 60.5t39.5 146.5v271 h63v-516z" glyph-name="uogonek" horiz-adv-x="543" unicode="ų"/><glyph d="M197 0l-198 714h73l162 -625h2l174 625h85l175 -625h2l163 625h68l-197 -714h-72l-181 639h-2l-180 -639h-74zM488 920l114 -141h-65l-86 102l-88 -102h-58l114 141h69z" glyph-name="Wcircumflex" horiz-adv-x="905" unicode="Ŵ"/><glyph d="M180 0l-166 516h67l132 -442h2l126 442h71l126 -442h2l132 442h67l-166 -516h-69l-127 434h-2l-126 -434h-69zM411 730l114 -141h-65l-86 102l-88 -102h-58l114 141h69z" glyph-name="wcircumflex" horiz-adv-x="753" unicode="ŵ"/><glyph d="M270 0v294l-281 420h81l235 -362l234 362h81l-282 -420v-294h-68zM344 920l114 -141h-65l-86 102l-88 -102h-58l114 141h69z" glyph-name="Ycircumflex" horiz-adv-x="609" unicode="Ŷ"/><glyph d="M211 2l-206 514h67l170 -440l159 440h63l-224 -595q-29 -68 -54 -90t-82 -22q-38 2 -48 5v53q25 -5 43 -5q20 0 34 5t24.5 18.5t15.5 23.5t16 34zM276 730l114 -141h-65l-86 102l-88 -102h-58l114 141h69z" glyph-name="ycircumflex" horiz-adv-x="469" unicode="ŷ"/><glyph d="M270 0v294l-281 420h81l235 -362l234 362h81l-282 -420v-294h-68zM250 800h-68v101h68v-101zM427 800h-68v101h68v-101z" glyph-name="Ydieresis" horiz-adv-x="609" unicode="Ÿ"/><glyph d="M53 656v58h514v-60l-470 -596h480v-58h-556v60l470 596h-438zM454 921l-132 -141h-51l105 141h78z" glyph-name="Zacute" horiz-adv-x="598" unicode="Ź"/><glyph d="M435 471l-341 -418h355v-53h-431v51l337 412h-314v53h394v-45zM387 731l-132 -141h-51l105 141h78z" glyph-name="zacute" horiz-adv-x="469" unicode="ź"/><glyph d="M53 656v58h514v-60l-470 -596h480v-58h-556v60l470 596h-438zM343 800h-68v101h68v-101z" glyph-name="Zdotaccent" horiz-adv-x="598" unicode="Ż"/><glyph d="M435 471l-341 -418h355v-53h-431v51l337 412h-314v53h394v-45zM270 610h-68v101h68v-101z" glyph-name="zdotaccent" horiz-adv-x="469" unicode="ż"/><glyph d="M53 656v58h514v-60l-470 -596h480v-58h-556v60l470 596h-438zM268 780l-114 141h65l86 -102l88 102h58l-114 -141h-69z" glyph-name="Zcaron" horiz-adv-x="598" unicode="Ž"/><glyph d="M438 471l-341 -418h355v-53h-431v51l337 412h-314v53h394v-45zM203 590l-114 141h65l86 -102l88 102h58l-114 -141h-69z" glyph-name="zcaron" horiz-adv-x="475" unicode="ž"/><glyph d="M13 -168l9 54q25 -6 52 -6q68 3 92 112l75 394h-100l9 53h101l13 69q23 99 37 128q38 78 133 78q27 0 62 -5l-12 -52q-20 4 -46 4q-16 -1 -29 -5.5t-22 -10t-17.5 -17t-13 -19.5t-9.5 -25t-7 -25t-6.5 -27.5t-5.5 -25.5l-14 -67h113l-9 -53h-113l-61 -323q-2 -8 -7 -35 t-7 -36.5t-8 -32.5t-10 -32t-12.5 -27.5t-17 -26t-21.5 -19t-27.5 -16t-33.5 -8t-42 -3.5q-17 0 -45 5z" glyph-name="florin" horiz-adv-x="568" unicode="ƒ"/><glyph d="M35 235h68q-4 -192 233 -192q41 0 82.5 13.5t74 48.5t32.5 83q0 94 -147 129l-159 39q-74 19 -117.5 57t-43.5 115q0 30 11 61.5t36 64.5t76.5 54t122.5 21q113 0 188.5 -58t75.5 -164h-68q-4 78 -59.5 121t-135.5 43q-78 0 -128.5 -34t-50.5 -108q0 -85 108 -109 l174 -43q87 -23 136 -65.5t49 -122.5q0 -20 -3.5 -40.5t-20 -52t-43.5 -54.5t-80.5 -40t-125.5 -17q-134 0 -212.5 62.5t-72.5 187.5zM274 -50h86v-80q0 -69 -86 -73v28q36 7 39 34h-39v91z" glyph-name="Scommaaccent" horiz-adv-x="628" unicode="Ș"/><glyph d="M435 365h-63q-2 56 -40 84.5t-95 28.5q-49 0 -85.5 -21.5t-36.5 -67.5q0 -60 107 -87l84 -19q62 -9 104.5 -45t42.5 -98q0 -77 -62.5 -116t-144.5 -39q-196 0 -212 182h63q4 -62 45.5 -95.5t106.5 -33.5q54 0 97.5 24.5t43.5 73.5q0 41 -30 61t-83 33l-81 18 q-71 18 -107.5 48t-36.5 90q0 73 58 109t136 36q81 0 133 -42.5t56 -123.5zM202 -50h86v-80q0 -69 -86 -73v28q36 7 39 34h-39v91z" glyph-name="scommaaccent" horiz-adv-x="487" unicode="ș"/><glyph d="M-6 656v58h566v-58h-249v-656h-68v656h-249zM234 -50h86v-80q0 -69 -86 -73v28q36 7 39 34h-39v91z" glyph-name="uni021A" horiz-adv-x="554" unicode="Ț"/><glyph d="M163 671v-155h105v-53h-105v-348q0 -34 10 -50t41 -18q27 0 54 3v-54q-10 0 -28 -1t-28 -1q-63 0 -88 25t-24 91v353h-90v53h90v155h63zM139 -50h86v-80q0 -69 -86 -73v28q36 7 39 34h-39v91z" glyph-name="uni021B" horiz-adv-x="302" unicode="ț"/><glyph d="M136 730l114 -141h-65l-86 102l-88 -102h-58l114 141h69z" glyph-name="circumflex" unicode="ˆ"/><glyph d="M60 590l-114 141h65l86 -102l88 102h58l-114 -141h-69z" glyph-name="caron" unicode="ˇ"/><glyph d="M263 638h-329v45h329v-45z" glyph-name="uni02C9" unicode="ˉ"/><glyph d="M-45 724h39q2 -38 32.5 -60t70.5 -22t70 22t36 60h39q-8 -59 -46.5 -93t-98.5 -34q-61 0 -99 33.5t-43 93.5z" glyph-name="breve" unicode="˘"/><glyph d="M133 610h-68v101h68v-101z" glyph-name="dotaccent" unicode="˙"/><glyph d="M31 680q0 -29 19.5 -48.5t48.5 -19.5t48.5 19.5t19.5 48.5t-19.5 48.5t-48.5 19.5t-48.5 -19.5t-19.5 -48.5zM-8 680q0 44 31.5 75.5t75.5 31.5t75.5 -31.5t31.5 -75.5t-31.5 -75.5t-75.5 -31.5t-75.5 31.5t-31.5 75.5z" glyph-name="ring" unicode="˚"/><glyph d="M157 0h38q-52 -43 -67 -67t-15 -50q0 -23 12.5 -35t31.5 -12q34 0 55 41l29 -13q-30 -67 -98 -67q-43 0 -67 22.5t-24 59.5q0 57 105 121z" glyph-name="ogonek" unicode="˛"/><glyph d="M217 710h38q-7 -39 -28.5 -67t-58.5 -28q-30 0 -75 23t-63 23q-38 0 -50 -51h-39q4 38 28 67t61 29q31 0 75 -22t60 -22q38 0 52 48z" glyph-name="tilde" unicode="˜"/><glyph d="M180 590h-51l101 141h76zM24 590h-51l101 141h76z" glyph-name="hungarumlaut" unicode="˝"/><glyph d="M556 72l-217 556l-213 -556h430zM668 0h-649l279 712h83z" glyph-name="uni0394" horiz-adv-x="686" unicode="Δ"/><glyph d="M694 0h-256v183q85 17 130.5 77.5t45.5 149.5q0 104 -68 171.5t-172 67.5q-103 0 -172 -68t-69 -171q0 -88 46.5 -150.5t130.5 -76.5v-183h-257v67h193v72q-90 25 -141.5 101t-51.5 173q0 133 94 220.5t227 87.5q134 0 227 -86.5t93 -219.5q0 -99 -50.5 -174.5 t-141.5 -101.5v-72h192v-67z" glyph-name="uni03A9" horiz-adv-x="760" unicode="Ω"/><glyph d="M484 516v-516h-58v93h-2q-24 -51 -72 -79.5t-106 -28.5q-70 0 -117 35v-211h-64v707h63v-336q2 -72 33.5 -107t104.5 -35q76 0 115.5 60.5t39.5 146.5v271h63z" glyph-name="uni03BC" horiz-adv-x="549" unicode="μ"/><glyph d="M553 68v-57q-36 -17 -69 -17q-29 0 -47.5 9t-26 27.5t-10 36.5t-2.5 47v296h-246v-410h-75v410h-69v69h541v-69h-76v-299q0 -26 7 -39.5t31 -13.5q21 0 42 10z" glyph-name="pi" horiz-adv-x="582" unicode="π"/><glyph d="M506 246h-500v58h500v-58z" glyph-name="endash" horiz-adv-x="512" unicode="–"/><glyph d="M876 246h-740v58h740v-58z" glyph-name="emdash" horiz-adv-x="1012" unicode="—"/><glyph d="M185 471h-84v107q0 47 23 86t66 50v-43q-24 -9 -36.5 -38t-10.5 -56h42v-106z" glyph-name="quoteleft" horiz-adv-x="290" unicode="‘"/><glyph d="M105 714h84v-107q0 -47 -23 -86t-66 -50v43q24 7 37 37.5t10 56.5h-42v106z" glyph-name="quoteright" horiz-adv-x="290" unicode="’"/><glyph d="M105 106h84v-107q0 -47 -23 -86t-66 -50v43q24 7 37 37.5t10 56.5h-42v106z" glyph-name="quotesinglbase" horiz-adv-x="290" unicode="‚"/><glyph d="M185 471h-84v107q0 47 23 86t66 50v-43q-24 -9 -36.5 -38t-10.5 -56h42v-106zM339 471h-84v107q0 47 23 86t66 50v-43q-24 -9 -36.5 -38t-10.5 -56h42v-106z" glyph-name="quotedblleft" horiz-adv-x="444" unicode="“"/><glyph d="M105 714h84v-107q0 -47 -23 -86t-66 -50v43q24 7 37 37.5t10 56.5h-42v106zM259 714h84v-107q0 -47 -23 -86t-66 -50v43q24 7 37 37.5t10 56.5h-42v106z" glyph-name="quotedblright" horiz-adv-x="444" unicode="”"/><glyph d="M106 106h84v-107q0 -47 -23 -86t-66 -50v43q24 7 37 37.5t10 56.5h-42v106zM260 106h84v-107q0 -47 -23 -86t-66 -50v43q24 7 37 37.5t10 56.5h-42v106z" glyph-name="quotedblbase" horiz-adv-x="444" unicode="„"/><glyph d="M252 440h-198v53h198v221h63v-221h199v-53h-199v-591h-63v591z" glyph-name="dagger" horiz-adv-x="568" unicode="†"/><glyph d="M252 47h-198v53h198v363h-198v53h198v198h63v-198h199v-53h-199v-363h199v-53h-199v-198h-63v198z" glyph-name="daggerdbl" horiz-adv-x="568" unicode="‡"/><glyph d="M78 357q0 74 52 126t126 52t126.5 -52t52.5 -126t-52.5 -126.5t-126.5 -52.5t-126 52.5t-52 126.5z" glyph-name="bullet" horiz-adv-x="512" unicode="•"/><glyph d="M881 0h-84v106h84v-106zM548 0h-84v106h84v-106zM215 0h-84v106h84v-106z" glyph-name="ellipsis" horiz-adv-x="1012" unicode="…"/><glyph d="M220 661q-96 0 -96 -124t96 -124t96 124t-96 124zM220 706q77 0 113 -46t36 -123t-36 -123t-113 -46t-113 46t-36 123t36 123t113 46zM907 278q-96 0 -96 -124t96 -124t96 124t-96 124zM907 323q77 0 113 -46t36 -123t-36 -123t-113 -46t-113 46t-36 123t36 123t113 46z M553 278q-96 0 -96 -124t96 -124t96 124t-96 124zM553 323q77 0 113 -46t36 -123t-36 -123t-113 -46t-113 46t-36 123t36 123t113 46zM135 -34l453 759h47l-452 -759h-48z" glyph-name="perthousand" horiz-adv-x="1123" unicode="‰"/><glyph d="M192 119l-133 125v62l133 125v-67l-94 -89l94 -89v-67z" glyph-name="guilsinglleft" horiz-adv-x="271" unicode="‹"/><glyph d="M79 119v67l94 89l-94 89v67l133 -125v-62z" glyph-name="guilsinglright" horiz-adv-x="271" unicode="›"/><glyph d="M-160 -34l453 759h47l-452 -759h-48z" glyph-name="fraction" horiz-adv-x="179" unicode="⁄"/><glyph d="M563 635l-27 -59q-66 79 -160 79q-92 0 -150 -67q-51 -58 -69 -154h333l-18 -45h-321q-3 -25 -3 -43v-8q0 -5 1 -8h304l-19 -45h-282q13 -104 63 -169q60 -75 158 -75q52 0 96 23q35 20 78 63v-77q-77 -65 -176 -65q-125 0 -202 89q-67 79 -82 211h-66l19 45h44 q-1 3 -1 9v11q0 7 2 39h-64l18 45h51q22 123 92 196q76 82 195 82q124 0 186 -77z" glyph-name="Euro" horiz-adv-x="568" unicode="€"/><glyph d="M412 38q-53 -52 -120 -52q-53 0 -86 31t-33 93v130l-59 -64h-2l-21 27l82 84v264q0 80 33.5 125t84.5 45q44 0 71.5 -33t27.5 -90q0 -141 -166 -321v-159q0 -50 23 -71t55 -21q46 0 88 39h2zM347 593q0 40 -16.5 65.5t-40.5 25.5q-28 0 -47 -32t-19 -94v-233 q123 145 123 268z" glyph-name="afii61289" horiz-adv-x="512" unicode="ℓ"/><glyph d="M535 302h-53v412h85l133 -334l129 334h85v-412h-53v364h-2l-146 -364h-30l-146 364h-2v-364zM275 302h-53v367h-134v45h321v-45h-134v-367z" glyph-name="trademark" horiz-adv-x="1002" unicode="™"/><glyph d="M694 0h-256v183q85 17 130.5 77.5t45.5 149.5q0 104 -68 171.5t-172 67.5q-103 0 -172 -68t-69 -171q0 -88 46.5 -150.5t130.5 -76.5v-183h-257v67h193v72q-90 25 -141.5 101t-51.5 173q0 133 94 220.5t227 87.5q134 0 227 -86.5t93 -219.5q0 -99 -50.5 -174.5 t-141.5 -101.5v-72h192v-67z" glyph-name="Omega" horiz-adv-x="760" unicode="Ω"/><glyph d="M567 259h-404v-181q59 -59 145 -59q122 0 193 120l35 -21q-46 -72 -98 -103.5t-130 -31.5q-115 0 -186.5 79t-71.5 197q0 119 71 197.5t187 78.5q115 0 186.5 -77t72.5 -199zM163 295h291v145q-63 60 -147 60t-144 -60v-145z" glyph-name="estimated" horiz-adv-x="612" unicode="℮"/><glyph d="M395 280q-63 85 -148 85q-63 0 -98.5 -45.5t-35.5 -109.5t35 -113t97 -49q52 0 87.5 41t49 91t13.5 100zM475 362q0 -52 -5 -98.5t-20 -99t-39.5 -89.5t-67.5 -62t-100 -25q-92 0 -148 66t-56 159q0 91 54.5 152.5t144.5 61.5q96 0 161 -76q0 7 0.5 22t0.5 23q0 44 -9 87 t-27.5 83.5t-54 66t-82.5 25.5q-53 0 -114 -47l-42 50q68 60 153 60q57 0 101.5 -22t72 -57.5t45.5 -84t25 -96.5t7 -99z" glyph-name="partialdiff" horiz-adv-x="523" unicode="∂"/><glyph d="M556 72l-217 556l-213 -556h430zM668 0h-649l279 712h83z" glyph-name="Delta" horiz-adv-x="686" unicode="∆"/><glyph d="M656 -214h-78v928h-426v-928h-78v1000h582v-1000z" glyph-name="product" horiz-adv-x="731" unicode="∏"/><glyph d="M595 -214h-564v64l322 440l-308 432v64h538v-72h-437l301 -424l-319 -432h467v-72z" glyph-name="summation" horiz-adv-x="627" unicode="∑"/><glyph d="M558 278v-53h-503v53h503z" glyph-name="minus" horiz-adv-x="612" unicode="−"/><glyph d="M-160 -34l453 759h47l-452 -759h-48z" glyph-name="uni2215" horiz-adv-x="179" unicode="∕"/><glyph d="M145 375q24 0 41.5 -18t17.5 -42q0 -23 -18 -40.5t-41 -17.5q-24 0 -41.5 18t-17.5 42q0 23 18 40.5t41 17.5z" glyph-name="uni2219" horiz-adv-x="290" unicode="∙"/><glyph d="M520 786l-211 -1000h-75l-162 334l-47 -22l-28 60l112 52l151 -317l184 893h76z" glyph-name="radical" horiz-adv-x="516" unicode="√"/><glyph d="M343 251q-29 27 -45 40.5t-48 31.5t-57 18q-37 0 -58.5 -26t-21.5 -63q0 -39 22 -62.5t61 -23.5q62 0 147 85zM658 252q0 40 -21.5 65t-60.5 25q-12 0 -23.5 -3t-24 -9.5t-21.5 -11.5t-22.5 -16.5t-19 -16.5t-20 -18.5t-16.5 -15.5q32 -30 46 -42t44.5 -27.5t59.5 -15.5 q37 0 58 24.5t21 61.5zM723 255q0 -68 -40 -112.5t-107 -44.5q-87 0 -190 109q-3 -3 -23.5 -21.5t-26 -23t-23 -18.5t-28 -19t-26.5 -13t-31.5 -10.5t-32.5 -2.5q-66 0 -106.5 43t-40.5 110q0 66 39.5 111t105.5 45q38 0 76.5 -20t58.5 -38t58 -56l17.5 17.5t19 18.5t18 17 t20 17.5t19.5 14t22.5 13.5t22 9t25 7t25.5 2q66 0 107 -44t41 -111z" glyph-name="infinity" horiz-adv-x="771" unicode="∞"/><glyph d="M426 730q0 -17 -12 -27.5t-30 -10.5t-34 21.5t-22 21.5q-8 0 -14.5 -7t-9.5 -18.5t-5 -25t-2 -29v-27t0.5 -22.5t0.5 -12l1 -39v-511q0 -119 -15 -167q-27 -90 -111 -90q-26 0 -47.5 13.5t-21.5 38.5q0 14 11.5 25t25.5 11q18 0 32.5 -21t19.5 -21q7 0 12.5 7.5t8.5 20.5 t5 27.5t2.5 31.5t0.5 28.5v23.5l-1 12v22v495q0 9 -0.5 39t-0.5 46.5t2 46t6.5 47.5t14 40.5t23 35t34 21.5t47.5 9q31 0 55 -14t24 -42z" glyph-name="integral" horiz-adv-x="566" unicode="∫"/><glyph d="M516 234h50q-7 -63 -38.5 -104t-90.5 -41q-45 0 -143 36t-129 36t-51 -23t-24 -55h-52q23 148 129 148q45 0 140.5 -35.5t133.5 -35.5q60 0 75 74zM517 415h50q-7 -63 -39 -104.5t-91 -41.5q-46 0 -143 35.5t-128 35.5q-30 0 -50 -22.5t-26 -54.5h-51q7 62 38.5 105 t90.5 43q44 0 139.5 -35.5t134.5 -35.5q60 0 75 75z" glyph-name="approxequal" horiz-adv-x="605" unicode="≈"/><glyph d="M556 114h-287l-76 -146l-62 32l59 114h-141v72h178l67 127h-245v71h283l77 148l62 -32l-61 -116h146v-71h-183l-67 -127h250v-72z" glyph-name="notequal" horiz-adv-x="605" unicode="≠"/><glyph d="M556 -30h-507v72h507v-72zM556 82l-507 184v75l507 187v-78l-408 -146l408 -145v-77z" glyph-name="lessequal" horiz-adv-x="605" unicode="≤"/><glyph d="M556 -30h-507v72h507v-72zM556 266l-507 -184v77l408 145l-408 146v78l507 -187v-75z" glyph-name="greaterequal" horiz-adv-x="605" unicode="≥"/><glyph d="M434 356l-132 315l-131 -315l131 -315zM510 356l-172 -391h-72l-171 391l171 391h72z" glyph-name="lozenge" horiz-adv-x="605" unicode="◊"/><glyph d="M67 -63v579h63v-564q0 -143 -110 -143q-8 0 -22 1t-22 1v52q22 -2 34 -1q34 0 45.5 19t11.5 56z" glyph-name="dotlessj" unicode=""/><glyph d="M107 778l-132 141h78l105 -141h-51z" glyph-name="grave.cap" unicode=""/><glyph d="M222 919l-132 -141h-51l105 141h78z" glyph-name="acute.cap" unicode=""/><glyph d="M136 919l114 -141h-65l-86 102l-88 -102h-58l114 141h69z" glyph-name="circumflex.cap" unicode=""/><glyph d="M60 778l-114 141h65l86 -102l88 102h58l-114 -141h-69z" glyph-name="caron.cap" unicode=""/><glyph d="M217 710h38q-7 -39 -28.5 -67t-58.5 -28q-30 0 -75 23t-63 23q-38 0 -50 -51h-39q4 38 28 67t61 29q31 0 75 -22t60 -22q38 0 52 48z" glyph-name="tilde.cap" unicode=""/><glyph d="M44 800h-68v101h68v-101zM221 800h-68v101h68v-101z" glyph-name="dieresis.cap" unicode=""/><glyph d="M263 828h-329v45h329v-45z" glyph-name="macron.cap" unicode=""/><glyph d="M-45 914h39q2 -38 32.5 -60t70.5 -22t70 22t36 60h39q-8 -59 -46.5 -93t-98.5 -34q-61 0 -99 33.5t-43 93.5z" glyph-name="breve.cap" unicode=""/><glyph d="M31 860q0 -29 19.5 -48.5t48.5 -19.5t48.5 19.5t19.5 48.5t-19.5 48.5t-48.5 19.5t-48.5 -19.5t-19.5 -48.5zM-8 860q0 44 31.5 75.5t75.5 31.5t75.5 -31.5t31.5 -75.5t-31.5 -75.5t-75.5 -31.5t-75.5 31.5t-31.5 75.5z" glyph-name="ring.cap" unicode=""/><glyph d="M180 782h-51l101 141h76zM24 782h-51l101 141h76z" glyph-name="hungarumlaut.cap" unicode=""/><glyph d="M133 800h-68v101h68v-101z" glyph-name="dotaccent.cap" unicode=""/><glyph d="M227 714l-86 -141h-47l55 141h78z" glyph-name="caron.alt" unicode=""/><glyph d="M103 -50h86v-80q0 -69 -86 -73v28q36 7 39 34h-39v91z" glyph-name="commaaccent" horiz-adv-x="290" unicode=""/><glyph d="M186 623h-86v80q0 69 86 73v-28q-36 -7 -39 -34h39v-91z" glyph-name="commaaccent.alt" horiz-adv-x="290" unicode=""/><glyph d="M284 117h-56v67h56v-67zM277 234h-46l-2 17q0 56 13 81q15 28 46 59q31 29 40.5 46t9.5 37q0 36 -22.5 60.5t-53.5 24.5q-71 0 -82 -95l-50 8q7 69 43 103t92 34q54 0 89 -36t35 -95q0 -34 -13 -60t-50 -60q-37 -33 -43 -52q-6 -20 -6 -72zM56 50h412v617h-412v-617z M6 718h512v-718h-512v718z" glyph-name="uniF8FF" horiz-adv-x="524" unicode=""/></font>
</defs>
</svg>
